<?xml version="1.0" standalone="no"?>
<!DOCTYPE svg PUBLIC "-//W3C//DTD SVG 20010904//EN"
 "http://www.w3.org/TR/2001/REC-SVG-20010904/DTD/svg10.dtd">
<svg version="1.0" xmlns="http://www.w3.org/2000/svg"
 width="400.000000pt" height="300.000000pt" viewBox="0 0 400.000000 300.000000"
 preserveAspectRatio="xMidYMid meet">

<g transform="translate(0.000000,300.000000) scale(0.100000,-0.100000)"
fill="#000000" stroke="none">
<path d="M0 2556 c0 -368 2 -446 14 -455 8 -7 16 -8 18 -4 1 5 12 0 22 -11 19
-19 19 -19 -3 -13 -44 11 -51 0 -51 -82 l0 -77 57 4 c32 2 69 -1 83 -7 20 -8
9 -10 -57 -10 -67 -1 -83 -4 -83 -16 0 -18 13 -18 108 -1 39 7 72 10 72 7 -1
-28 -46 -50 -120 -58 l-60 -6 0 -47 0 -48 76 -4 c88 -4 105 -17 103 -82 -1
-23 -3 -33 -6 -23 -2 9 -8 17 -13 17 -5 0 -6 7 -3 17 4 11 3 14 -6 9 -6 -4 -9
-16 -6 -27 7 -21 -10 -27 -18 -6 -3 6 -4 2 -4 -10 1 -14 8 -23 17 -23 8 0 21
-9 28 -20 7 -12 17 -18 22 -15 6 3 10 -3 10 -14 0 -12 5 -21 10 -21 6 0 10
-26 10 -58 0 -46 -3 -59 -15 -59 -16 0 -18 8 -15 44 2 27 -18 67 -21 43 -1 -8
-3 -28 -3 -44 -1 -16 -7 -31 -14 -33 -8 -3 -12 11 -13 49 0 36 -3 47 -8 33 -4
-11 -6 -37 -3 -59 2 -24 0 -36 -6 -32 -12 7 -23 61 -28 137 -4 55 -18 109 -29
109 -3 0 -2 -38 1 -84 7 -93 -4 -147 -17 -86 -8 35 -8 34 -6 -7 2 -29 -2 -43
-10 -43 -9 0 -13 18 -13 58 0 31 -2 92 -4 134 -3 66 -2 76 12 71 10 -4 13 -2
8 5 -4 7 -14 12 -22 12 -12 0 -14 -99 -14 -714 l0 -715 44 -6 c25 -4 68 -5 96
-4 45 4 50 2 46 -13 -2 -10 0 -18 5 -18 5 0 9 4 9 9 0 6 23 40 50 76 28 37 64
96 80 131 57 126 86 145 131 84 16 -20 27 -26 47 -23 22 4 24 2 12 -7 -12 -9
-11 -10 7 -5 16 4 28 -1 45 -20 12 -14 28 -23 35 -21 7 3 12 0 10 -7 -1 -7 5
-12 13 -13 24 -2 50 -15 50 -27 0 -5 -10 -2 -23 9 -20 17 -20 17 2 -8 13 -15
28 -25 33 -22 5 3 7 0 6 -8 -2 -7 2 -12 8 -11 7 1 20 -8 30 -20 l19 -22 -22
19 c-32 26 -29 15 12 -49 42 -65 54 -72 24 -14 -11 23 -16 38 -10 34 6 -3 20
-23 31 -43 l19 -37 1 30 c1 17 4 24 7 17 7 -18 -6 -64 -16 -57 -9 5 -21 -17
-21 -38 0 -7 4 -6 10 3 5 8 10 10 10 4 0 -6 -7 -17 -15 -24 -13 -11 -18 -10
-30 6 -11 15 -14 16 -15 4 0 -8 -15 11 -33 43 -34 63 -104 152 -124 161 -20 8
-16 2 24 -46 56 -67 100 -140 107 -178 3 -19 3 -29 0 -22 -7 15 -40 16 -50 0
-4 -6 -3 -8 3 -5 6 4 10 -4 10 -18 1 -14 -3 -25 -8 -25 -5 0 -8 3 -7 8 3 9
-35 124 -60 183 -22 51 -74 114 -106 130 -17 8 -15 5 6 -14 44 -41 102 -156
133 -267 l7 -25 -27 25 c-15 14 -36 43 -47 65 -11 22 -33 54 -48 70 -16 17
-42 57 -60 90 -31 60 -31 60 -25 20 7 -45 59 -188 81 -222 9 -15 24 -23 42
-23 20 0 32 -8 44 -28 9 -15 28 -40 42 -55 26 -28 26 -28 4 -21 -56 17 -154
94 -140 109 4 5 2 5 -5 1 -8 -4 -26 14 -49 49 -20 30 -39 53 -41 51 -3 -2 11
-28 29 -58 50 -77 120 -135 222 -181 38 -18 39 -18 33 3 -3 11 -1 20 4 20 5 0
9 12 9 26 0 36 45 77 110 101 82 30 110 36 105 21 -2 -7 -6 -37 -9 -67 -3 -33
-13 -66 -26 -83 -11 -15 -17 -28 -13 -29 4 0 18 -2 31 -3 12 -2 27 3 33 11 15
18 64 17 79 -2 7 -8 17 -15 23 -15 5 0 2 9 -9 21 -19 21 -55 22 -113 4 -22 -7
-22 -6 -11 14 6 13 27 29 46 37 47 20 100 5 144 -41 33 -34 38 -36 92 -34 32
1 58 5 58 8 0 7 -117 122 -158 156 -12 10 -45 21 -71 25 -41 5 -49 4 -46 -10
2 -9 -8 -21 -22 -27 -21 -10 -24 -10 -19 3 3 9 6 22 6 29 0 19 67 58 90 52 11
-3 20 0 20 6 0 9 2 9 8 0 5 -8 13 -9 22 -3 39 24 -57 36 -104 13 -23 -12 -27
-12 -24 -1 13 39 99 49 165 19 43 -20 63 -45 63 -80 0 -13 5 -19 14 -15 21 8
74 -22 81 -47 4 -12 4 -47 1 -78 -8 -67 8 -49 17 21 5 37 2 51 -13 71 l-20 25
65 16 c78 20 80 20 65 1 -10 -12 -7 -13 19 -5 17 5 31 6 31 2 0 -3 5 -1 12 6
20 20 29 14 24 -15 -4 -17 -2 -23 5 -16 5 5 19 47 29 92 21 85 26 143 8 81
-10 -34 -11 -34 -21 -13 -5 13 -14 23 -20 23 -5 0 -4 -7 3 -15 12 -15 6 -35
-11 -35 -5 0 -14 10 -19 23 -6 16 -9 17 -9 5 -1 -24 27 -48 46 -41 13 5 15 2
10 -11 -4 -10 -7 -20 -7 -22 0 -3 -10 2 -21 10 -12 8 -29 12 -38 8 -13 -5 -11
-7 8 -12 14 -3 26 -11 28 -17 5 -13 -78 -27 -110 -18 -17 5 -19 4 -7 -4 11 -8
6 -10 -22 -9 -21 1 -35 5 -32 10 3 4 0 8 -5 8 -6 0 -11 -4 -11 -10 0 -5 -7
-10 -15 -10 -8 0 -15 9 -15 20 0 10 -9 24 -21 30 -20 11 -20 11 -4 -13 15 -24
15 -24 -10 -20 -14 3 -22 10 -18 16 3 6 1 7 -5 3 -19 -11 -38 40 -22 59 17 20
48 19 46 -1 0 -9 6 -19 14 -22 13 -4 13 -3 2 11 -11 13 -10 17 5 26 17 10 17
10 -2 12 -35 2 -49 -2 -72 -23 l-22 -21 -49 20 c-44 19 -53 19 -88 7 -51 -18
-51 -18 -25 10 20 22 21 24 4 30 -9 4 -14 4 -10 0 8 -8 -21 -44 -34 -44 -14 0
14 53 46 87 46 48 69 50 98 11 14 -18 28 -43 32 -56 4 -13 9 -21 13 -18 3 3
-12 39 -32 79 -32 62 -36 76 -27 100 6 15 18 30 26 33 18 7 88 -43 82 -59 -5
-17 -45 -21 -62 -7 -16 13 -10 34 6 25 5 -4 9 -1 9 5 0 19 -34 6 -38 -13 -2
-10 3 -26 12 -36 9 -10 13 -20 10 -23 -3 -4 13 3 36 14 l42 21 42 -20 c26 -13
53 -19 70 -16 19 4 37 -1 58 -17 29 -21 29 -21 18 -1 -6 12 -16 21 -23 21 -7
1 -2 9 11 20 20 16 25 17 49 5 22 -12 31 -12 61 1 26 11 38 11 48 3 11 -9 14
-8 14 0 0 7 4 10 8 7 4 -2 14 -1 22 5 10 6 11 9 3 9 -42 0 -53 20 -26 46 13
13 23 28 23 34 0 6 5 8 12 4 8 -5 9 -2 3 12 -4 10 -10 30 -13 44 l-5 25 24
-22 c13 -12 42 -28 64 -36 22 -8 63 -24 92 -36 33 -13 54 -17 58 -11 4 6 3 10
-2 8 -17 -4 -73 14 -68 22 3 5 -18 15 -47 24 -29 9 -68 25 -85 36 -38 23 -43
55 -18 136 18 61 20 161 3 167 -7 2 -11 7 -8 10 3 3 29 -1 58 -9 28 -9 60 -13
69 -11 11 3 6 6 -12 7 -30 2 -30 2 -5 11 l25 8 -25 -1 c-14 -1 -44 2 -66 6
-36 6 -43 11 -46 37 -3 16 -4 29 -4 29 1 0 22 -11 48 -24 32 -16 65 -24 100
-24 36 -1 48 2 38 8 -8 6 -31 10 -50 11 -36 0 -88 17 -60 18 135 8 200 6 200
-6 0 -7 -6 -13 -12 -13 -9 0 -9 -3 1 -9 11 -7 7 -13 -20 -25 l-34 -16 32 6
c29 5 34 2 43 -22 6 -15 24 -43 41 -61 47 -54 81 -114 76 -134 -3 -10 2 -27
10 -39 16 -22 12 -59 -14 -120 -14 -33 -15 -34 -29 -16 -12 17 -14 17 -14 4 0
-23 -8 -27 -86 -33 -79 -7 -154 7 -195 36 -17 12 -27 15 -24 7 3 -7 24 -24 47
-37 35 -20 55 -23 127 -23 47 0 111 3 141 6 116 15 134 14 163 -6 15 -11 25
-24 22 -29 -4 -5 16 -9 44 -9 28 0 51 -4 51 -10 0 -5 -8 -10 -17 -10 -13 0
-14 -3 -5 -12 15 -15 45 9 37 30 -4 10 0 12 11 8 8 -3 19 -6 24 -6 4 0 10 -9
13 -20 6 -22 36 -27 55 -8 17 17 15 45 -4 52 -22 9 -24 8 -24 -9 0 -8 5 -14
11 -12 21 4 20 -20 -1 -26 -14 -4 -24 1 -32 16 -6 12 -15 25 -20 28 -4 3 8 13
28 22 19 10 33 13 29 7 -3 -5 3 -10 14 -10 11 0 26 -7 35 -15 8 -9 19 -15 23
-14 22 4 43 -2 43 -12 0 -6 -7 -9 -15 -5 -22 8 -18 -12 5 -24 12 -6 20 -21 20
-36 0 -47 -83 -147 -137 -165 -18 -6 -31 -14 -28 -19 3 -4 -5 -10 -18 -14 -29
-8 -42 -8 -34 1 10 10 -13 33 -33 33 -10 0 -23 -7 -30 -15 -8 -9 -9 -15 -2
-15 6 0 14 5 17 10 5 8 12 7 23 -2 13 -11 8 -14 -34 -18 -46 -5 -49 -7 -46
-32 2 -19 -3 -28 -18 -33 -22 -7 -26 -20 -8 -31 6 -4 8 -3 4 4 -3 6 3 13 14
17 25 8 123 -23 114 -36 -7 -12 -41 -12 -49 1 -8 12 -52 13 -59 1 -4 -5 2 -7
12 -4 22 5 52 -21 52 -44 0 -13 -3 -13 -15 -3 -25 21 -23 7 2 -17 l23 -22 0
37 c0 28 3 33 10 22 5 -8 10 -25 10 -37 0 -19 5 -23 34 -23 30 0 35 4 39 28
l4 27 2 -27 c1 -32 21 -39 21 -8 0 13 7 20 20 20 36 0 21 19 -17 22 -43 3 -47
21 -7 26 24 3 25 4 7 17 -21 17 -37 19 -28 5 9 -14 -22 -11 -84 8 -36 12 -56
24 -62 38 -7 20 -4 22 61 26 37 3 77 12 90 21 20 14 26 13 67 -5 24 -11 47
-17 50 -14 3 3 -13 13 -36 22 l-42 17 22 23 c12 13 30 26 41 30 10 3 18 10 18
16 0 5 10 24 22 40 21 31 42 108 28 108 -4 0 -10 8 -13 19 -4 16 3 19 52 24
39 3 61 0 72 -9 8 -8 19 -14 23 -14 5 0 -2 9 -15 20 -21 17 -22 21 -9 30 21
14 36 12 50 -5 10 -12 10 -19 2 -27 -7 -7 -12 -26 -12 -43 0 -19 -7 -35 -20
-43 -11 -7 -20 -19 -20 -28 0 -12 5 -10 20 7 16 20 19 21 20 7 0 -9 4 -19 10
-23 5 -3 7 15 4 48 -4 43 -2 58 14 78 11 13 22 22 25 19 22 -23 9 -211 -15
-226 -6 -4 -8 1 -4 13 3 11 -1 28 -9 39 -11 14 -14 15 -9 3 3 -10 1 -20 -5
-23 -6 -4 -5 -19 3 -44 10 -28 18 -36 33 -34 21 3 38 -22 27 -39 -3 -5 0 -9 7
-9 7 0 9 10 7 25 l-5 25 83 0 c94 0 181 -17 188 -37 3 -7 -10 -34 -29 -59 -34
-44 -45 -72 -25 -59 5 3 10 12 10 19 0 26 106 118 195 171 49 29 108 72 130
96 l40 42 -58 -42 c-31 -23 -62 -39 -67 -36 -6 3 -10 -1 -10 -9 0 -10 -9 -16
-23 -16 -13 0 -42 -13 -65 -30 -27 -19 -42 -25 -45 -17 -7 19 49 94 61 82 2
-2 -5 -14 -17 -26 -39 -42 -12 -32 54 21 36 29 70 62 77 74 11 20 10 20 -9 3
-11 -9 -26 -17 -35 -17 -8 0 -23 -9 -33 -20 -10 -11 -20 -18 -22 -16 -3 2 10
18 28 35 17 17 28 31 23 31 -22 0 -127 -115 -150 -163 l-24 -52 0 36 c0 28 11
51 50 102 28 37 65 77 83 89 49 34 166 132 162 136 -3 3 -70 -45 -118 -84 -20
-16 -31 -18 -22 -4 9 14 -66 -28 -85 -47 -13 -14 -13 -15 8 -10 12 3 22 1 22
-3 0 -16 -21 -22 -35 -10 -15 12 -35 6 -35 -11 0 -6 6 -7 13 -3 8 5 8 2 -2 -9
-16 -20 -26 -23 -15 -4 5 8 2 8 -9 -2 -18 -15 -23 -26 -7 -16 16 10 12 -7 -10
-43 -11 -18 -18 -37 -16 -41 8 -12 -9 -30 -29 -32 -46 -5 -77 1 -72 14 2 6 10
11 16 9 7 -1 10 2 6 8 -9 15 18 54 94 134 66 69 195 173 241 195 l25 12 -25
-18 c-110 -80 -154 -117 -218 -181 -40 -41 -70 -77 -68 -80 3 -2 31 24 63 58
56 61 170 153 246 199 40 24 47 34 20 25 -15 -5 -15 -3 2 11 29 24 65 30 80
14 7 -8 34 -54 60 -104 42 -82 47 -99 54 -185 5 -56 9 -75 10 -47 l1 47 93 2
c95 1 127 3 140 8 4 1 11 3 16 4 5 0 13 5 18 10 5 5 3 6 -4 2 -18 -10 -16 9 2
24 10 9 15 9 15 1 0 -6 5 -11 11 -11 6 0 7 5 2 13 -4 6 -8 23 -9 37 0 14 -4
32 -8 41 -10 23 36 74 85 96 l41 18 -6 48 c-5 37 -4 47 5 41 9 -5 10 0 6 17
-4 13 -7 33 -8 44 l0 20 -9 -20 c-7 -16 -9 -17 -9 -3 -1 9 -4 24 -8 34 -4 11
-3 15 4 11 6 -4 13 -1 16 5 2 7 9 -17 17 -55 7 -37 16 -70 21 -72 4 -3 6 5 4
17 -13 87 -15 117 -7 122 5 3 6 20 3 38 -5 32 -5 32 -10 7 -5 -23 -8 -25 -19
-13 -10 11 -9 17 6 32 10 10 16 25 14 33 -3 9 -1 11 6 4 15 -14 45 -123 45
-163 0 -27 2 -30 10 -16 6 11 5 46 -3 101 -12 73 -11 86 1 94 12 8 12 10 0 18
-9 6 -12 18 -7 37 4 16 10 69 14 117 8 98 14 90 -58 70 -22 -6 -24 -5 -11 10
7 9 17 15 21 12 5 -3 6 4 3 15 -3 12 0 20 6 20 7 0 10 -4 6 -9 -7 -13 10 -22
27 -16 9 4 13 16 10 35 l-4 28 -30 -18 c-17 -10 -39 -32 -49 -49 -12 -20 -30
-34 -50 -38 -30 -6 -31 -7 -24 -49 6 -40 4 -44 -29 -69 -20 -15 -33 -32 -29
-38 3 -6 1 -7 -5 -3 -6 3 -16 -3 -23 -15 -11 -21 -11 -21 -30 -3 -21 22 -16
64 9 64 8 0 12 3 9 7 -4 3 1 12 11 20 15 13 15 13 -8 7 -22 -6 -23 -5 -11 10
8 9 9 16 3 16 -6 0 -14 -5 -17 -10 -8 -14 -85 82 -86 106 0 11 -3 14 -6 7 -8
-21 -33 -15 -43 10 -8 21 -9 21 -9 1 -1 -11 5 -26 12 -33 6 -8 7 -11 2 -8 -6
3 -17 2 -25 -3 -9 -6 -19 -3 -27 8 -12 15 -13 14 -3 -7 7 -13 10 -36 8 -52 -4
-26 -2 -28 19 -23 14 4 23 2 23 -5 0 -6 6 -11 14 -11 8 0 17 -7 20 -16 5 -12
0 -11 -23 5 -15 11 -32 16 -37 12 -15 -14 -55 6 -48 24 3 8 9 13 14 10 4 -2 5
7 2 21 -3 18 -8 22 -15 15 -18 -18 -27 -13 -42 22 -10 23 -14 26 -15 12 0 -11
9 -33 20 -50 11 -16 20 -42 20 -57 0 -16 5 -28 11 -28 6 0 9 7 5 15 -4 13 -2
14 14 5 24 -13 26 -30 5 -30 -8 0 -15 -5 -15 -11 0 -5 -4 -7 -10 -4 -6 3 -10
1 -10 -5 0 -6 -5 -8 -11 -4 -8 4 -7 9 2 15 12 8 11 11 -1 19 -8 5 -22 10 -30
10 -12 0 -12 -2 -1 -9 9 -6 10 -11 2 -15 -6 -4 -11 -12 -11 -17 0 -6 4 -8 9
-5 5 3 11 -1 15 -9 3 -8 1 -14 -5 -12 -6 1 -16 -7 -22 -18 -7 -10 -18 -25 -24
-33 -7 -7 -13 -18 -13 -24 0 -5 -7 -8 -15 -4 -11 4 -15 -1 -15 -19 0 -22 4
-25 40 -25 22 0 40 -3 40 -8 0 -4 -20 -6 -44 -4 -44 4 -45 4 -52 -32 -4 -22
-1 -48 6 -67 14 -34 53 -64 70 -54 6 4 10 -8 10 -32 1 -30 3 -34 11 -21 5 10
26 25 47 35 20 9 63 32 95 50 31 17 57 29 57 26 0 -3 7 1 17 8 15 13 15 12 3
-8 -8 -12 -25 -25 -39 -28 -17 -4 -21 -9 -13 -14 9 -5 7 -12 -7 -25 -11 -10
-25 -15 -32 -10 -8 4 -10 3 -5 -4 4 -7 -6 -18 -25 -27 -17 -9 -28 -19 -26 -22
3 -3 18 4 34 14 44 31 53 35 53 24 0 -5 -19 -23 -43 -39 -23 -17 -58 -43 -77
-60 -19 -17 -38 -28 -42 -26 -13 8 -9 42 5 48 6 4 2 4 -11 2 -18 -3 -27 4 -47
38 -31 53 -54 129 -56 181 -1 39 -1 39 -9 11 -5 -16 -7 -33 -4 -38 10 -16 -37
-58 -136 -122 -52 -35 -130 -95 -172 -135 -42 -40 -80 -71 -83 -71 -4 1 -10
-2 -13 -6 -4 -4 -1 -4 6 0 23 13 12 -6 -40 -72 l-53 -66 -3 59 c-3 47 0 62 14
72 17 12 17 13 -1 13 -18 0 -18 1 2 22 11 13 30 52 43 88 13 36 32 77 42 93
11 15 17 27 14 27 -3 0 9 15 27 33 18 17 24 24 13 15 -32 -26 -67 -34 -111
-27 -22 3 -34 7 -27 8 6 0 12 5 12 10 0 4 -11 6 -25 3 -15 -2 -25 0 -25 7 0 6
14 11 30 11 32 0 43 19 13 21 -10 1 -2 5 17 8 39 8 63 3 54 -10 -3 -5 0 -9 5
-9 6 0 11 5 11 10 0 7 13 8 34 5 42 -8 56 11 60 89 3 46 1 53 -13 49 -10 -2
-23 3 -30 11 -8 9 -19 16 -26 16 -7 0 -16 7 -19 16 -6 15 -4 15 11 3 16 -13
17 -12 4 4 -7 9 -22 17 -32 17 -23 0 -25 26 -3 34 21 8 74 -15 74 -31 0 -7 5
-13 11 -13 5 0 8 -4 5 -9 -3 -5 1 -14 8 -20 12 -10 14 -9 11 6 -2 10 -7 35
-10 56 -4 23 -18 51 -36 69 -16 17 -29 37 -29 44 0 7 20 22 45 34 25 12 45 25
45 30 0 5 19 11 42 15 l42 7 -23 19 c-28 23 -85 25 -123 5 -26 -14 -28 -13
-28 3 0 33 -13 30 -41 -8 -22 -32 -32 -38 -53 -34 -14 3 -32 0 -40 -6 -17 -15
-84 -10 -91 7 -2 7 2 15 11 19 9 3 12 9 7 12 -5 3 -6 20 -2 36 4 17 7 22 8 11
1 -13 5 -16 19 -10 9 4 38 14 63 23 46 16 46 17 58 76 7 33 27 100 46 149 19
50 31 95 28 100 -4 6 -3 8 2 4 4 -4 14 -3 20 2 14 11 13 -11 -5 -149 -6 -46
-9 -86 -6 -89 3 -3 1 -11 -6 -19 -6 -7 -8 -16 -4 -20 9 -10 38 33 61 92 l20
50 2 -90 c2 -49 5 -100 8 -112 6 -27 35 -31 35 -5 1 9 3 89 6 177 l4 160 -34
-65 c-19 -36 -35 -62 -36 -59 -2 23 37 119 56 138 13 13 24 28 24 34 0 6 3 8
6 5 3 -4 0 -17 -7 -30 -12 -23 -12 -23 16 2 l28 25 -7 -30 c-4 -16 -9 -77 -12
-135 -3 -57 -9 -121 -13 -141 -7 -29 -6 -36 4 -33 7 3 11 13 8 22 -4 17 37
187 57 232 l10 25 -3 -27 c-3 -16 -1 -28 3 -28 8 0 21 39 17 52 -2 7 36 39 41
34 1 -2 -5 -22 -13 -46 -8 -24 -17 -52 -20 -64 -3 -12 -11 -46 -20 -76 -8 -30
-15 -62 -15 -71 0 -9 -7 -20 -16 -23 -9 -4 -14 -9 -12 -12 3 -3 32 4 64 16 32
11 70 20 84 20 15 0 35 6 46 14 11 8 30 12 46 9 24 -5 26 -3 21 17 -4 15 -8
18 -14 9 -5 -9 -16 -10 -41 -3 -33 10 -33 10 -38 84 -3 41 -3 89 -2 107 l4 31
29 -27 c28 -27 29 -31 23 -92 -4 -47 -3 -60 5 -49 6 8 11 29 12 45 0 25 2 27
9 10 7 -18 8 -17 15 10 12 51 48 126 57 117 4 -4 10 -34 13 -67 5 -57 15 -89
15 -47 0 23 19 41 21 20 1 -7 1 -16 0 -20 0 -5 4 -8 9 -8 6 0 10 -6 10 -14 0
-7 9 -16 20 -19 15 -4 20 0 21 16 0 12 11 -11 24 -51 27 -85 39 -103 33 -48
-4 35 -3 36 10 20 14 -18 14 -18 8 0 -4 11 -11 40 -17 64 -10 45 -28 86 -29
67 0 -10 -20 15 -20 26 0 17 30 2 35 -18 3 -14 10 -21 17 -17 7 5 9 0 6 -14
-4 -13 -1 -20 5 -19 6 1 12 -7 14 -18 6 -33 26 -99 34 -110 15 -20 14 -76 -1
-85 -26 -17 -38 -11 -45 20 -8 38 -16 41 -37 18 -10 -10 -14 -18 -9 -18 6 0
13 5 17 11 9 15 24 -9 24 -38 0 -13 5 -23 11 -23 17 0 99 53 99 64 0 5 -6 3
-14 -3 -11 -9 -16 -2 -29 36 -9 27 -18 66 -22 88 -6 37 -5 39 9 21 8 -10 17
-23 19 -29 2 -6 8 -8 14 -4 8 5 8 20 2 49 -7 28 -6 45 1 52 8 8 9 6 5 -6 -4
-11 -2 -18 5 -18 6 0 8 -4 5 -10 -3 -5 -2 -10 3 -10 6 0 8 -10 4 -22 -4 -17
-2 -20 15 -16 34 9 49 -13 57 -80 9 -83 23 -119 38 -104 7 7 32 12 57 12 24 0
41 3 37 7 -4 4 -31 8 -59 8 l-52 0 -10 75 c-6 41 -8 91 -5 110 l5 35 3 -35 c2
-19 8 -39 14 -45 7 -7 9 0 6 23 -3 17 -1 32 4 32 4 0 8 -10 8 -22 1 -29 38
-110 39 -85 1 11 5 15 13 11 8 -5 9 -2 3 12 -5 10 -9 29 -9 42 -1 12 -4 22 -8
22 -4 0 -5 7 -1 15 8 21 16 11 19 -23 2 -31 21 -82 29 -82 3 0 5 27 4 60 -1
33 -6 60 -11 60 -4 0 -8 7 -8 16 0 8 4 12 10 9 6 -4 9 10 8 34 -1 40 -2 40
-50 51 -27 5 -62 10 -79 10 l-29 0 31 35 c30 33 59 48 43 23 -5 -7 -3 -8 7 -3
19 12 58 15 64 5 3 -5 -3 -13 -12 -19 -10 -5 -15 -12 -12 -15 3 -3 16 2 29 11
22 15 22 17 5 30 -11 7 -13 13 -7 13 7 0 12 5 12 10 0 7 -8 6 -22 -2 -28 -14
-59 -18 -52 -6 4 5 12 7 18 5 7 -3 13 1 13 8 0 19 -28 4 -90 -48 -38 -32 -52
-38 -68 -31 -19 9 -16 13 34 63 70 69 157 128 157 106 0 -2 -12 -11 -27 -20
-27 -15 -27 -16 -3 -10 24 6 24 5 6 -9 -16 -13 -17 -18 -6 -31 23 -27 35 -10
37 51 1 32 2 59 3 59 1 0 4 12 6 26 3 20 -4 32 -37 58 -46 37 -46 50 0 26 l31
-16 -2 33 c-1 18 -8 39 -15 46 -19 20 -16 37 4 21 15 -12 16 -12 10 4 -3 9 -2
17 3 17 6 0 10 5 10 10 0 6 -8 10 -18 10 -20 0 -88 65 -75 72 4 3 3 3 -4 2 -7
-2 -15 1 -18 5 -8 15 -75 42 -113 48 -20 3 -44 6 -52 7 -44 7 -67 20 -88 51
-32 51 -100 98 -117 82 -7 -7 -11 -15 -8 -19 2 -4 -3 -5 -12 -2 -9 4 -26 -3
-40 -16 -14 -13 -29 -19 -37 -14 -7 4 -10 3 -5 -1 4 -5 -5 -22 -20 -39 -25
-28 -25 -29 -3 -10 14 12 39 29 55 39 29 17 29 17 -5 -16 -19 -18 -33 -35 -31
-37 5 -6 -59 -82 -69 -82 -5 0 -12 17 -16 38 -4 20 -9 32 -11 25 -8 -23 18
-91 44 -117 28 -29 84 -56 112 -56 13 0 13 2 2 9 -7 5 -9 11 -5 13 5 3 3 3 -3
2 -7 -2 -23 0 -35 5 -21 8 -15 12 49 44 55 27 69 31 60 17 -6 -11 -20 -23 -32
-29 -13 -6 -15 -10 -5 -10 13 -1 13 -2 0 -11 -13 -9 -13 -10 0 -10 13 0 13 -1
0 -11 -12 -9 -11 -10 8 -6 27 6 28 3 1 -22 -24 -22 -18 -41 12 -41 10 0 19 -7
19 -15 0 -8 -5 -15 -12 -15 -6 0 -9 -3 -6 -6 7 -6 48 17 48 27 0 4 -11 10 -25
13 -25 6 -34 29 -15 41 5 3 17 30 26 60 11 34 21 51 25 43 5 -7 5 -15 1 -18
-12 -8 -29 -74 -24 -90 4 -10 10 -2 19 20 l13 35 -4 -52 c-5 -58 -20 -93 -41
-93 -7 0 -27 8 -44 18 -25 14 -34 15 -48 4 -47 -33 -63 -36 -92 -19 -20 11
-39 15 -61 11 -25 -5 -37 -2 -58 18 -33 32 -65 48 -89 47 -11 0 -5 -5 14 -12
17 -7 48 -27 68 -44 28 -25 43 -31 61 -27 14 4 39 -1 60 -11 38 -18 35 -18 99
29 7 5 20 6 30 2 16 -6 17 -8 1 -24 -20 -23 -20 -31 4 -62 11 -14 20 -27 20
-30 0 -3 -36 -5 -79 -5 -44 0 -79 -2 -78 -5 1 -7 -13 -90 -20 -114 -3 -12 -1
-16 6 -12 6 4 11 16 11 27 0 10 5 19 11 19 5 0 15 14 21 31 9 26 12 29 20 15
5 -9 6 -26 3 -39 -15 -53 -14 -60 4 -27 11 19 25 46 31 60 11 27 44 37 56 18
4 -7 2 -8 -5 -4 -7 4 -15 -2 -20 -16 -9 -21 -10 -21 -11 -3 -1 13 -6 6 -16
-19 -15 -42 -11 -65 5 -25 14 33 13 9 0 -30 -11 -31 -29 -42 -29 -18 0 8 -3 8
-9 -2 -7 -10 -22 -12 -60 -8 -32 4 -51 2 -51 -4 0 -6 -12 -9 -27 -7 -21 2 -29
9 -31 27 -2 13 2 28 8 35 9 8 11 6 5 -11 -9 -31 3 -29 15 3 7 17 14 23 22 17
18 -10 39 -13 33 -4 -2 5 0 22 4 39 9 29 8 30 -9 20 -10 -6 -16 -19 -13 -27 4
-13 3 -13 -5 -2 -6 8 -17 11 -27 8 -9 -4 -14 -3 -11 2 4 5 -3 7 -15 4 -12 -4
-18 -11 -15 -20 4 -9 -9 -20 -40 -33 -55 -24 -84 -25 -84 -5 0 8 -4 15 -10 15
-5 0 -10 -5 -10 -12 0 -6 -3 -8 -7 -5 -7 7 -38 -51 -35 -65 1 -5 -2 -8 -6 -8
-5 0 -17 -8 -28 -18 -22 -19 -74 -45 -74 -35 0 3 11 16 25 29 14 13 25 30 25
38 0 20 -37 39 -61 33 -11 -3 -26 1 -33 9 -8 8 -28 14 -45 14 -19 0 -38 8 -48
20 -13 14 -19 16 -25 7 -10 -16 -10 -29 1 -23 5 3 20 -3 32 -14 21 -16 21 -19
6 -20 -10 0 -20 6 -23 13 -2 7 -19 14 -36 15 -17 2 -37 7 -43 12 -13 11 -43
-5 -32 -17 5 -4 12 -2 16 6 6 10 10 9 14 -3 4 -11 17 -16 36 -14 16 1 37 -4
46 -12 10 -8 33 -15 52 -16 20 0 29 2 21 7 -7 4 -9 12 -4 16 5 4 13 1 19 -8 8
-13 15 -14 38 -5 24 8 32 7 46 -7 16 -15 16 -18 2 -33 -9 -8 -25 -17 -35 -18
-10 -2 -18 -10 -17 -18 2 -8 -12 -19 -35 -27 -42 -14 -88 -34 -150 -64 -29
-14 -44 -29 -48 -46 -8 -39 -11 -53 -23 -91 -10 -33 -9 -34 6 -15 15 20 15 20
10 -2 -3 -13 -1 -26 4 -29 10 -6 12 -77 3 -87 -3 -3 -12 -3 -20 0 -10 3 -12
18 -9 51 l5 47 -12 -35 c-15 -45 -13 -43 -38 -35 -12 4 -28 21 -35 38 -9 21
-14 25 -15 14 0 -19 19 -39 108 -114 55 -47 82 -94 82 -145 0 -42 -19 -69
-102 -149 -64 -60 -82 -89 -57 -89 5 0 8 4 5 9 -3 4 3 16 13 25 10 10 21 14
23 9 3 -4 4 -3 2 3 -1 6 19 32 45 57 l48 47 38 -80 c34 -74 37 -86 32 -143 -5
-58 -32 -127 -49 -127 -5 0 -8 -6 -8 -12 -1 -20 -61 -82 -113 -118 -37 -24
-63 -33 -108 -37 -71 -7 -134 16 -136 49 -2 17 3 20 33 16 21 -2 33 0 31 6 -4
12 -43 13 -70 1 -10 -4 -17 -4 -16 1 1 5 -1 18 -6 29 -11 29 -88 145 -93 141
-5 -6 17 -47 39 -71 28 -31 48 -87 38 -110 -6 -17 -8 -16 -8 9 -1 23 -5 27
-20 23 -14 -3 -17 0 -14 12 2 10 -2 23 -10 30 -8 6 -13 19 -10 29 2 9 -8 32
-22 51 -29 40 -35 72 -9 50 13 -11 14 -9 9 12 -3 13 -7 36 -9 52 -1 15 -6 30
-9 34 -4 3 -7 11 -7 17 0 6 5 4 10 -4 7 -11 10 0 12 40 3 100 -4 215 -13 218
-5 2 -9 10 -9 18 0 9 5 12 10 9 6 -3 10 0 10 7 -1 18 -36 159 -46 183 -6 15 1
12 34 -13 92 -73 104 -113 73 -237 -11 -46 -20 -110 -19 -142 2 -57 2 -57 5
-10 3 31 8 45 15 41 7 -5 9 4 4 28 -4 20 0 54 9 84 8 27 15 76 15 108 0 52 -4
64 -27 89 -19 19 -22 26 -10 22 10 -5 17 -2 17 5 0 8 14 11 44 9 24 -2 42 -1
39 4 -2 4 -16 7 -31 8 l-27 1 30 13 c17 7 44 28 60 46 l30 33 -44 -32 c-52
-37 -73 -42 -44 -9 32 35 53 83 52 119 -1 31 -2 30 -8 -9 -7 -38 -47 -109 -75
-132 -6 -5 -22 -11 -36 -13 -20 -2 -24 1 -22 17 l4 20 -16 -20 c-15 -19 -15
-19 -16 10 0 33 -23 115 -39 143 -15 24 -13 7 8 -72 28 -105 25 -108 -69 -72
-66 26 -82 37 -95 64 -22 44 -21 54 10 142 25 70 46 113 31 63 -4 -13 -8 -36
-8 -53 -1 -16 -5 -30 -11 -30 -5 0 -3 -7 4 -17 8 -9 12 -17 9 -19 -3 -1 -2 -5
1 -9 4 -3 13 7 20 24 7 16 17 27 22 24 5 -3 6 4 3 15 -4 11 -2 23 3 26 6 4 10
38 9 76 -1 39 2 73 5 77 4 3 7 -33 7 -80 0 -83 -26 -194 -51 -222 -5 -5 -9
-14 -9 -19 0 -17 25 25 49 82 17 42 22 73 23 155 1 58 -4 119 -11 140 -7 21
-11 40 -8 43 2 2 35 -16 73 -41 65 -44 107 -89 146 -159 24 -44 22 -23 -3 25
-11 23 -19 42 -17 43 2 2 12 8 23 14 20 11 20 11 -2 12 -12 0 -24 -6 -27 -12
-3 -9 -9 -8 -20 6 -18 23 -13 36 17 37 18 1 18 2 4 6 -10 3 -23 0 -30 -5 -9
-7 -22 -2 -47 18 l-35 28 35 9 c37 10 70 6 70 -8 0 -5 5 -9 12 -9 6 0 3 9 -8
21 -15 16 -25 19 -54 13 -19 -3 -40 -7 -47 -7 -7 0 -10 -4 -7 -9 11 -18 -36 4
-64 30 -7 6 -17 12 -22 12 -4 0 -11 11 -14 24 -3 13 -9 32 -12 43 -4 11 4 6
19 -12 22 -26 25 -27 20 -8 -3 12 -20 36 -39 53 -19 17 -32 35 -29 40 3 5 -4
11 -15 15 -11 3 -20 11 -20 16 0 5 -7 9 -16 9 -8 0 -12 5 -9 10 13 22 -25 8
-43 -15 -13 -16 -30 -25 -47 -25 -49 0 -175 -130 -197 -203 -7 -23 -21 -49
-31 -57 -39 -32 -30 -248 14 -351 28 -65 34 -58 9 9 -11 29 -20 62 -19 75 1
14 5 8 12 -18 15 -49 26 -67 37 -60 5 3 11 -4 15 -15 3 -11 11 -20 16 -20 6 0
1 13 -11 30 -12 16 -18 35 -15 40 4 6 1 9 -5 8 -7 -2 -15 4 -19 12 -5 8 -13
25 -19 36 -7 14 -7 25 -1 31 6 6 6 19 0 36 -8 19 -6 28 5 37 11 10 14 8 15
-11 0 -13 9 -42 20 -64 10 -22 17 -31 14 -20 -47 202 -50 262 -14 330 23 46
60 79 46 41 -4 -10 -3 -15 3 -11 6 3 10 15 10 26 0 10 4 19 8 19 5 0 17 8 28
18 17 16 68 26 59 12 -2 -3 0 -12 5 -20 7 -12 15 -13 40 -3 16 6 28 7 24 2 -3
-5 2 -9 10 -9 9 0 16 5 16 10 0 6 5 10 10 10 7 0 7 -6 1 -19 -10 -19 -8 -72 4
-91 9 -15 25 -12 25 5 0 8 5 15 10 15 17 0 11 -18 -10 -33 -10 -7 -26 -26 -34
-42 -14 -26 -13 -30 2 -41 22 -16 31 -10 27 21 -3 30 19 54 29 30 3 -8 1 -15
-4 -15 -5 0 -7 -7 -4 -15 4 -8 1 -22 -6 -30 -6 -8 -10 -20 -7 -27 4 -8 6 -7 6
5 1 21 21 23 21 2 0 -18 -33 -137 -49 -177 -13 -33 -22 -35 -46 -8 -17 18 -16
21 10 65 14 26 24 53 21 60 -3 8 2 15 12 17 14 3 13 5 -4 10 -17 4 -26 -2 -41
-31 -11 -20 -25 -35 -31 -33 -7 1 -12 -2 -12 -8 0 -5 -7 -6 -17 -3 -11 4 -14
3 -9 -5 11 -18 27 -15 53 10 39 37 35 15 -12 -56 l-44 -68 24 -26 c14 -15 25
-30 25 -34 0 -5 5 -8 11 -8 6 0 0 15 -15 34 -33 44 -34 57 -1 26 14 -13 25
-29 25 -36 0 -7 8 -10 20 -7 12 3 27 -4 42 -19 13 -14 34 -31 47 -37 25 -14
81 -125 79 -157 -1 -11 2 -36 6 -57 4 -21 3 -37 -2 -37 -5 0 -12 -29 -16 -65
-4 -36 -11 -77 -16 -90 -11 -29 -24 -136 -22 -177 2 -46 22 -108 34 -105 6 1
13 -4 16 -12 3 -8 0 -11 -7 -7 -12 8 -9 -3 27 -86 52 -118 19 -153 -67 -73
-59 55 -79 94 -85 166 -3 30 -8 75 -12 101 l-6 48 29 -15 c15 -8 35 -15 43
-15 8 1 -1 8 -20 16 -49 21 -87 60 -117 118 -21 41 -25 63 -25 135 0 85 0 86
-14 46 -7 -22 -14 -41 -14 -42 0 0 -14 -6 -31 -12 -24 -8 -30 -8 -26 2 3 6 12
29 21 50 23 54 11 46 -19 -12 -31 -61 -58 -81 -110 -81 -32 0 -49 7 -74 29
l-32 29 15 53 c9 29 16 66 15 83 0 23 -4 17 -15 -27 -7 -31 -20 -70 -29 -87
-18 -35 -18 -37 -2 -43 6 -2 1 -2 -13 0 -14 3 -26 6 -28 8 -2 2 -4 50 -4 107
-1 97 -1 100 -10 48 -9 -52 -6 -135 8 -190 3 -14 8 -46 11 -72 3 -27 9 -48 14
-48 14 0 11 -52 -7 -134 -18 -78 -27 -88 -37 -36 -4 16 -11 30 -16 30 -5 0 -1
-21 9 -48 16 -43 24 -89 21 -134 -1 -12 -6 -15 -18 -11 -16 6 -16 4 1 -16 14
-15 16 -25 9 -32 -7 -7 -14 -1 -21 20 -8 22 -15 29 -26 25 -9 -3 -16 -1 -16 4
0 6 9 9 20 7 16 -3 18 -1 11 13 -13 25 -51 57 -51 44 0 -6 8 -15 17 -21 10 -5
15 -13 11 -17 -13 -12 -69 33 -123 99 -24 28 -55 76 -55 83 0 10 33 -25 48
-51 6 -11 12 -15 12 -9 0 6 -11 27 -24 46 -47 70 -73 191 -77 370 -2 83 -1 88
30 124 35 43 38 56 16 74 -19 16 -19 34 0 26 8 -3 15 -1 15 4 0 5 -10 10 -22
9 -13 0 -44 3 -70 7 -39 5 -53 3 -80 -16 -31 -21 -25 -20 33 3 32 13 68 4 97
-23 34 -32 27 -52 -34 -111 -64 -62 -84 -100 -84 -163 0 -33 7 -52 25 -74 28
-33 31 -42 13 -42 -7 0 -24 -12 -40 -27 l-27 -26 -11 28 c-6 16 -14 48 -17 72
-3 24 -9 43 -13 43 -11 0 15 -107 34 -144 l15 -30 10 27 c11 29 26 35 35 15 3
-7 3 -3 0 10 -4 18 -1 22 20 22 21 0 25 -5 24 -27 0 -16 3 -38 7 -50 6 -18 3
-23 -10 -23 -13 0 -16 6 -13 24 4 17 1 23 -9 19 -16 -6 -17 -50 -1 -55 6 -2
12 -13 14 -24 2 -10 5 -32 9 -49 5 -29 5 -29 -9 -9 -8 12 -27 45 -41 75 -14
30 -22 45 -19 34 4 -11 9 -31 11 -45 4 -24 2 -23 -27 10 -64 72 -100 186 -100
317 0 42 4 55 22 67 12 9 30 16 38 16 9 0 27 11 40 25 12 13 26 22 31 20 4 -3
10 -1 13 4 3 5 -1 12 -10 15 -25 10 -32 7 -30 -10 0 -9 -6 -20 -14 -24 -8 -4
-36 -18 -62 -31 -26 -13 -51 -19 -55 -15 -4 5 -2 11 5 13 8 3 27 20 44 39 17
18 35 31 39 28 5 -3 21 4 35 15 15 12 41 21 58 21 23 0 27 -3 16 -9 -8 -6 -17
-8 -21 -5 -4 2 -10 0 -14 -6 -11 -18 22 -11 46 10 l24 20 -107 -3 c-64 -2
-112 -8 -121 -15 -8 -7 -21 -10 -28 -7 -8 3 -40 -19 -75 -53 -71 -67 -105
-141 -110 -237 l-3 -60 8 55 c13 94 39 156 88 210 25 28 48 49 50 46 3 -2 25
7 49 20 45 25 59 21 25 -8 -12 -10 -18 -24 -14 -36 2 -11 0 -23 -6 -26 -7 -5
-11 5 -11 26 0 32 0 32 -15 11 -8 -12 -13 -28 -10 -36 3 -7 -1 -20 -10 -27
-14 -11 -15 -8 -9 25 l6 39 -29 -34 c-28 -34 -30 -39 -15 -41 4 0 12 -5 18
-10 8 -6 18 -4 28 7 24 24 31 10 15 -28 -9 -21 -14 -71 -14 -135 0 -87 3 -106
21 -130 25 -34 119 -100 155 -108 34 -8 54 -30 68 -75 l11 -35 -3 32 c-3 27
-1 31 10 21 20 -16 53 -83 53 -107 0 -10 6 -21 14 -24 13 -5 13 -1 0 28 -8 19
-14 36 -14 39 0 9 115 -62 143 -88 37 -34 35 -87 -3 -96 -30 -8 -68 6 -93 33
-10 11 -20 18 -23 15 -3 -3 9 -17 26 -31 33 -28 39 -43 14 -33 -8 3 -12 2 -9
-4 7 -12 -58 -24 -88 -16 -13 3 -44 24 -70 46 -25 22 -70 51 -101 65 -64 28
-81 51 -91 120 -3 28 -13 60 -21 72 -26 41 -1 24 75 -50 41 -39 65 -58 53 -42
-29 44 -107 114 -179 163 -35 23 -69 54 -76 69 -8 15 -17 21 -21 15 -3 -6 -2
-13 4 -17 21 -13 9 -25 -24 -25 -18 0 -39 -7 -46 -15 -12 -14 -8 -15 31 -10
24 4 49 8 56 10 25 8 1 -22 -30 -37 l-31 -15 27 -5 c15 -3 27 -1 27 4 0 5 8
17 17 26 16 16 16 16 11 -5 -3 -13 -2 -26 3 -29 5 -3 9 -2 8 3 -3 20 2 31 14
29 20 -3 67 -35 65 -44 -1 -4 3 -25 9 -47 21 -79 24 -109 10 -96 -8 6 -18 7
-22 3 -5 -4 -6 -2 -2 3 3 6 2 17 -4 25 -6 10 -9 11 -9 3 0 -7 -7 -13 -15 -13
-25 0 -17 -16 19 -41 63 -43 69 -84 22 -148 l-24 -32 -7 38 c-4 20 -13 49 -20
63 -7 14 -11 39 -8 55 l4 30 -13 -25 c-9 -17 -23 -26 -46 -28 -27 -3 -32 -7
-32 -28 0 -14 4 -22 10 -19 6 3 10 -1 10 -9 0 -8 -4 -17 -10 -21 -6 -4 -6 -15
0 -31 6 -14 10 -49 9 -77 -1 -33 -4 -45 -8 -32 -13 38 -34 75 -43 75 -5 0 -7
4 -4 8 3 5 -9 22 -26 38 -17 16 -28 23 -24 17 12 -22 -9 -14 -34 12 -13 14
-20 25 -16 25 5 0 3 7 -4 15 -7 8 -17 15 -23 15 -6 0 -2 -7 9 -15 10 -8 14
-15 7 -15 -7 0 -22 13 -34 29 -12 16 -33 31 -48 34 -14 3 -43 22 -63 42 l-36
36 -26 -26 c-29 -29 -46 -32 -47 -7 -1 9 -5 4 -9 -13 -6 -25 -8 -26 -9 -7 0
13 -5 21 -10 18 -4 -3 -6 21 -4 54 4 54 3 59 -12 54 -15 -6 -16 -4 -6 14 18
34 31 36 31 3 0 -17 5 -31 11 -31 6 0 8 9 4 20 -5 14 -2 20 10 20 9 0 15 5 13
11 -2 6 -7 9 -11 7 -5 -2 -13 5 -19 15 -7 13 -6 24 5 40 11 16 13 35 7 70 -6
44 -6 47 13 41 12 -4 17 -2 13 4 -3 5 2 12 12 15 9 2 25 8 35 12 11 5 17 3 17
-7 0 -18 -34 -51 -43 -41 -4 3 -7 1 -7 -6 0 -8 8 -11 19 -8 34 9 41 -5 25 -51
-8 -24 -12 -48 -9 -53 4 -5 -1 -12 -9 -15 -9 -3 -16 -10 -16 -15 0 -4 6 -6 13
-4 7 3 16 -9 23 -30 6 -19 9 -35 7 -35 -15 0 -46 25 -53 43 l-9 22 0 -21 c-1
-24 13 -38 47 -48 38 -12 173 -93 206 -123 17 -16 38 -33 46 -37 8 -4 -4 10
-27 32 -28 25 -44 51 -48 73 l-6 33 25 -23 c26 -24 56 -23 56 2 0 8 -7 20 -15
27 -18 15 -20 31 -2 28 7 -2 12 7 12 21 0 15 -18 41 -51 74 -29 28 -50 55 -48
59 3 4 -3 8 -13 8 -14 1 -13 4 7 15 14 8 21 14 15 15 -14 0 67 40 82 40 24 0
13 17 -18 30 -42 18 -79 21 -79 6 0 -14 -52 -66 -66 -66 -5 1 6 14 24 29 38
33 40 60 4 76 -12 5 -22 13 -22 17 0 11 -56 38 -78 38 -19 0 -69 -46 -60 -55
2 -3 13 4 23 15 19 21 60 27 70 11 3 -6 -4 -8 -15 -6 -11 2 -20 0 -20 -6 0 -5
-7 -9 -15 -9 -9 0 -23 -16 -32 -35 -17 -35 -41 -50 -29 -18 6 15 5 15 -13 -1
-20 -18 -20 -18 -26 7 -9 33 -3 70 12 74 6 2 13 -6 16 -19 2 -13 5 52 6 143
l1 165 30 22 c16 12 33 35 36 50 8 32 32 62 50 62 7 0 21 8 31 19 10 10 32 22
50 25 17 4 37 14 44 22 13 16 -2 19 -18 3 -20 -20 -147 -28 -227 -14 -77 14
-125 33 -109 44 5 3 12 13 15 22 13 36 142 53 258 35 36 -6 41 -5 27 4 -46 29
-207 21 -288 -14 -11 -5 -18 -1 -22 13 -2 11 -2 23 1 26 4 3 7 20 9 38 1 18 3
41 5 52 2 14 -2 19 -14 17 -11 -2 -18 3 -18 13 0 8 7 15 15 15 9 0 12 6 8 17
-4 11 -3 14 5 9 7 -4 12 -15 12 -24 0 -13 2 -14 9 -4 7 11 9 11 14 -2 3 -8 1
-17 -6 -19 -7 -2 -9 -8 -5 -12 11 -12 35 18 33 43 -2 31 4 28 20 -10 13 -31
14 -26 13 75 l-1 108 -29 6 c-15 3 -28 8 -29 12 0 3 -2 13 -4 22 -1 9 2 23 7
30 8 11 8 10 4 -4 -9 -27 15 -16 25 12 8 20 6 21 -12 16 -15 -5 -19 -4 -14 5
4 6 18 10 31 7 13 -2 21 0 18 4 -3 5 0 9 5 9 7 0 11 -38 11 -105 0 -63 4 -105
10 -105 6 0 10 7 10 15 0 8 14 17 37 21 43 8 140 51 149 65 3 6 -20 -3 -53
-19 -32 -16 -74 -32 -94 -36 -35 -6 -37 -5 -42 26 -3 18 -6 58 -6 89 0 47 4
60 24 79 30 28 33 45 6 30 -11 -5 -32 -11 -48 -11 l-28 -1 30 -8 30 -7 -38
-17 c-77 -34 -249 -29 -317 9 -30 17 -22 19 17 4 53 -20 273 -9 273 14 0 6
-29 7 -84 3 -87 -7 -216 1 -216 14 0 15 138 35 235 33 55 0 91 2 81 6 -13 5
-16 10 -9 14 11 7 10 84 -2 95 -3 3 -10 1 -16 -5 -8 -8 -7 -17 1 -33 15 -28 9
-33 -29 -25 -22 5 -31 12 -31 26 0 10 6 19 13 19 8 0 7 4 -3 10 -22 14 -26 13
-38 -14 -9 -21 -8 -25 6 -29 9 -3 3 -5 -15 -6 -31 -1 -31 0 -20 28 6 17 15 28
19 25 4 -3 8 2 8 11 0 9 -5 13 -10 10 -13 -8 -13 65 0 85 5 8 10 11 10 5 0 -5
7 0 15 12 8 12 25 24 38 26 18 4 18 4 -6 6 -15 0 -30 7 -33 15 -3 8 -12 12
-20 9 -8 -3 -14 -1 -14 5 0 6 6 13 13 15 9 4 10 6 0 6 -16 1 -17 31 -2 31 5 0
8 4 4 10 -3 5 -6 58 -7 117 0 63 -5 114 -12 122 -9 12 -8 13 7 8 21 -8 23 15
3 46 -8 12 -17 41 -19 64 -7 57 -12 63 -47 53 -18 -5 -30 -5 -30 1 0 5 -4 9
-9 9 -5 0 -7 -67 -4 -152 2 -84 4 -160 3 -168 -2 -43 0 -168 4 -185 2 -11 -1
-26 -7 -32 -5 -7 -5 -13 0 -13 5 0 9 -8 9 -17 0 -10 4 -47 7 -83 4 -36 4 -69
0 -75 -14 -17 -133 -73 -132 -61 1 6 5 22 9 36 5 17 8 19 9 8 1 -22 14 -23 31
-3 7 9 19 14 27 11 14 -6 14 -4 18 114 1 51 -2 69 -17 84 -21 23 -23 37 -6 54
10 10 10 15 -2 22 -8 5 -10 10 -4 10 7 0 9 11 6 26 -3 16 1 30 9 35 12 7 12 9
0 9 -8 0 -11 7 -8 20 3 11 2 20 -1 20 -6 0 -9 188 -3 200 1 3 4 15 7 27 3 16
0 21 -10 17 -8 -3 -17 -1 -21 5 -3 6 -1 11 6 11 7 0 9 9 6 23 -6 20 -5 21 8 4
15 -21 27 -9 31 32 3 26 -10 41 -36 41 -12 0 -12 -2 -2 -9 11 -6 10 -10 -3
-15 -12 -4 -16 -14 -12 -33 3 -16 -1 -32 -9 -40 -9 -9 -14 -36 -14 -70 0 -78
-10 -61 -15 26 -2 39 -7 76 -10 81 -4 6 1 7 11 3 14 -5 16 -3 11 11 -4 10 -7
24 -7 32 0 8 -7 14 -15 14 -13 0 -15 -56 -15 -444z m21 137 c-8 -15 -10 -15
-11 -2 0 17 10 32 18 25 2 -3 -1 -13 -7 -23z m9 -254 c0 -5 -4 -9 -8 -9 -5 0
-9 7 -9 15 0 8 4 12 9 9 4 -3 8 -9 8 -15z m60 -29 c-6 -11 -12 -20 -14 -20 -3
0 -1 23 3 38 1 1 6 2 11 2 7 0 7 -6 0 -20z m3390 -75 c0 -2 -6 -8 -13 -14 -10
-8 -14 -7 -14 2 0 8 6 14 14 14 7 0 13 -1 13 -2z m21 -28 c-10 -9 -11 -8 -5 6
3 10 9 15 12 12 3 -3 0 -11 -7 -18z m-61 -98 c-52 -50 -85 -86 -73 -80 12 6
25 16 28 22 8 13 85 69 95 69 15 0 5 -33 -12 -38 -10 -2 -18 -8 -18 -13 0 -5
-5 -9 -11 -9 -6 0 -25 -11 -43 -25 -41 -31 -50 -31 -71 2 -18 27 -18 27 23 65
23 21 47 36 54 33 7 -3 36 13 63 34 28 21 52 37 55 34 2 -2 -38 -45 -90 -94z
m156 70 c19 -22 19 -22 -3 -10 -13 6 -23 16 -23 21 0 15 5 12 26 -11z m225
-95 c8 -8 20 -14 26 -14 16 0 44 -36 36 -45 -5 -4 -3 -5 3 -2 6 4 19 -2 29
-13 12 -13 14 -20 5 -20 -8 0 -11 -12 -8 -39 2 -22 0 -37 -4 -35 -5 3 -8 14
-8 25 0 11 -4 17 -10 14 -5 -3 -10 1 -10 10 0 8 -7 32 -15 53 -13 29 -18 34
-25 22 -9 -13 -10 -13 -10 0 0 13 -1 13 -10 0 -6 -10 -10 -11 -10 -2 0 16 -23
11 -31 -8 -4 -9 -9 0 -13 23 -4 20 -11 37 -16 37 -6 0 -10 -4 -10 -10 0 -18
-22 -10 -27 10 -5 19 -6 19 -18 3 -13 -17 -16 -16 -44 11 -17 17 -31 33 -31
37 0 11 183 -41 201 -57z m-3648 29 c-7 -2 -19 -2 -25 0 -7 3 -2 5 12 5 14 0
19 -2 13 -5z m-56 -9 c-3 -3 -12 -4 -19 -1 -8 3 -5 6 6 6 11 1 17 -2 13 -5z
m3501 -51 c-2 -4 -11 -8 -21 -8 -16 -2 -16 -1 0 17 15 17 30 11 21 -9z m74
-11 c8 -8 6 -10 -8 -6 -13 3 -27 -3 -39 -17 -12 -13 -14 -19 -5 -14 15 10 40
16 40 10 0 -2 -17 -13 -37 -25 -21 -12 -32 -15 -24 -7 8 11 9 17 1 22 -5 3
-12 0 -14 -7 -12 -41 -16 -48 -26 -48 -21 0 -9 25 31 66 41 42 59 48 81 26z
m-3579 -49 c4 -7 13 -13 20 -13 7 0 6 4 -3 10 -13 8 -12 10 3 10 9 0 18 -4 18
-10 1 -5 3 -14 4 -20 1 -5 3 -14 4 -20 0 -5 6 -10 12 -10 5 0 7 4 4 10 -8 13
26 0 43 -16 7 -7 12 -38 12 -74 0 -58 -1 -60 -20 -50 -11 6 -20 8 -20 5 0 -3
-9 -1 -19 5 -11 5 -39 11 -63 11 -24 1 -49 6 -55 12 -9 6 -13 6 -13 -2 0 -6
-8 -11 -17 -10 -11 0 -13 3 -5 6 6 2 10 9 7 13 -3 5 5 16 19 25 20 14 28 14
45 3 12 -7 21 -18 21 -24 0 -7 14 -14 30 -16 23 -3 30 -1 26 9 -7 18 4 16 19
-3 11 -16 12 -16 18 0 5 12 3 15 -6 10 -9 -5 -9 -4 1 7 16 17 15 29 -2 29 -8
0 -16 7 -20 15 -3 8 -16 20 -30 26 -13 6 -27 20 -29 31 -3 10 -19 24 -36 31
-17 6 -31 15 -31 19 0 13 54 -3 63 -19z m3594 -8 c0 -8 -4 -12 -8 -9 -9 5 -99
-78 -99 -91 0 -5 -8 -18 -17 -29 -10 -12 8 3 39 32 39 38 58 50 63 41 5 -7 4
-10 -2 -6 -10 6 -42 -23 -58 -53 -6 -11 -3 -10 12 3 11 9 22 14 25 11 3 -3 9
0 14 7 5 8 3 10 -6 4 -9 -5 -11 -4 -6 4 4 6 12 9 17 5 5 -3 7 -10 4 -15 -4 -5
-2 -9 4 -9 8 0 -62 -123 -96 -169 -5 -7 -48 26 -97 74 -53 51 -50 68 11 58 42
-7 63 10 63 51 0 25 8 37 41 59 22 16 46 30 54 31 8 1 18 5 21 9 12 11 21 8
21 -8z m-1655 -52 c29 -26 21 -36 -11 -14 -16 12 -39 26 -52 31 -21 9 -20 10
10 5 19 -3 43 -13 53 -22z m1683 5 c4 4 2 -3 -6 -15 -7 -12 -18 -19 -23 -16
-6 4 -5 8 2 11 10 3 10 7 0 20 -11 15 -11 15 3 5 9 -7 19 -9 24 -5z m-3449
-76 c-11 -10 -14 3 -8 33 l7 30 3 -28 c2 -16 1 -31 -2 -35z m3470 14 c-22 -35
-20 -43 4 -15 35 43 21 4 -27 -72 -25 -41 -52 -84 -60 -96 -16 -28 -24 -28
-52 -5 l-21 17 46 70 c56 84 84 116 96 109 4 -3 11 2 14 11 4 9 9 14 12 11 2
-3 -3 -17 -12 -30z m89 15 c-11 -35 -79 -143 -83 -132 -2 6 -7 9 -12 6 -5 -3
-3 8 3 25 6 16 15 30 19 30 4 0 5 -7 2 -15 -11 -27 5 -16 21 15 18 35 19 44 3
34 -7 -4 -8 -3 -4 5 4 6 11 9 16 6 11 -7 32 30 23 39 -3 3 -1 6 6 6 8 0 10 -7
6 -19z m20 -32 c-2 -19 -26 -58 -62 -102 -70 -86 -97 -127 -83 -127 5 0 10 5
10 11 0 5 4 7 10 4 10 -6 113 76 105 84 -3 2 -28 -15 -56 -39 -32 -27 -47 -35
-40 -22 6 11 21 29 33 39 13 10 28 27 34 38 6 10 17 21 25 23 8 2 5 -3 -6 -11
-42 -32 -6 -25 44 9 30 20 50 30 45 23 -5 -8 -9 -18 -9 -23 0 -5 -11 -16 -25
-25 -17 -11 -22 -12 -16 -2 6 9 5 12 -3 10 -7 -3 -12 -8 -11 -13 1 -4 -10 -20
-24 -35 -15 -15 -23 -31 -19 -35 5 -4 3 -6 -4 -4 -6 2 -26 -14 -45 -35 l-33
-38 -33 31 -32 32 22 37 c30 50 36 56 61 56 13 0 30 13 45 35 13 19 28 35 34
35 6 0 13 6 16 14 3 9 0 11 -8 6 -7 -4 -5 5 4 24 21 39 26 39 21 0z m-3500 11
c-3 -5 -11 -10 -16 -10 -6 0 -7 5 -4 10 3 6 11 10 16 10 6 0 7 -4 4 -10z m5
-66 c0 -8 -4 -12 -10 -9 -5 3 -10 10 -10 16 0 5 5 9 10 9 6 0 10 -7 10 -16z
m1709 -15 c-16 -10 -23 -4 -14 10 3 6 11 8 17 5 6 -4 5 -9 -3 -15z m-1852
-126 c-2 -21 -4 -6 -4 32 0 39 2 55 4 38 2 -18 2 -50 0 -70z m-47 66 c-42 -12
-57 -9 -25 5 17 7 34 11 40 8 5 -4 -1 -9 -15 -13z m3340 -10 c0 -6 -5 -20 -12
-32 -10 -20 -10 -21 5 -8 13 10 17 10 17 1 0 -10 4 -9 16 1 15 12 16 9 10 -31
-4 -25 -4 -40 1 -34 4 6 16 13 26 17 13 5 17 1 18 -16 1 -17 3 -16 9 8 l8 30
1 -32 c0 -18 6 -33 11 -33 10 0 14 20 10 55 -2 16 2 15 21 -10 13 -16 33 -38
44 -48 19 -17 18 -18 -55 -12 -106 8 -200 26 -200 37 0 6 8 7 18 3 13 -5 14
-4 5 6 -10 10 -15 9 -28 -1 -19 -16 -19 -6 -3 58 9 37 13 42 19 26 7 -18 8
-18 15 4 6 22 44 32 44 11z m-3400 -4 c0 -2 -15 -12 -32 -21 -18 -9 -36 -22
-40 -28 -5 -8 -8 -7 -8 2 0 7 11 17 25 24 13 6 22 15 19 19 -3 5 4 9 15 9 12
0 21 -2 21 -5z m18 -52 c-10 -2 -28 -2 -40 0 -13 2 -5 4 17 4 22 1 32 -1 23
-4z m3052 -13 c0 -5 -5 -10 -11 -10 -5 0 -7 5 -4 10 3 6 8 10 11 10 2 0 4 -4
4 -10z m-3009 -27 c13 -17 13 -17 -6 -3 -11 8 -22 16 -24 17 -2 2 0 3 6 3 6 0
17 -8 24 -17z m2999 -4 c0 -4 -11 -9 -24 -11 -17 -3 -23 -1 -19 8 5 13 43 16
43 3z m-2930 -116 c-10 -15 -11 -14 -6 7 3 14 7 45 8 70 l2 45 3 -52 c2 -29
-1 -61 -7 -70z m1467 65 c-2 -13 -4 -5 -4 17 -1 22 1 32 4 23 2 -10 2 -28 0
-40z m1364 19 c-10 -9 -11 -8 -5 6 3 10 9 15 12 12 3 -3 0 -11 -7 -18z m634
-43 c39 -8 80 -14 93 -14 12 0 22 -4 22 -9 0 -9 -246 31 -256 42 -8 7 44 0
141 -19z m-308 -36 c-3 -7 -5 -2 -5 12 0 14 2 19 5 13 2 -7 2 -19 0 -25z m246
2 c3 -11 3 -20 1 -20 -2 0 -8 9 -14 20 -6 11 -7 20 -2 20 6 0 12 -9 15 -20z
m220 3 c-7 -2 -19 -2 -25 0 -7 3 -2 5 12 5 14 0 19 -2 13 -5z m-726 -25 c-3
-8 -6 -5 -6 6 -1 11 2 17 5 13 3 -3 4 -12 1 -19z m-1443 -4 c3 -8 2 -12 -4 -9
-6 3 -10 10 -10 16 0 14 7 11 14 -7z m-1486 -30 c-3 -14 -5 -12 -10 9 -3 19
-2 25 4 19 6 -6 8 -18 6 -28z m2777 -74 c-17 -99 -25 -112 -25 -42 0 28 4 53
10 57 5 3 6 13 3 21 -3 9 0 20 8 25 8 5 9 9 2 9 -6 0 -9 9 -6 21 5 17 7 18 14
6 5 -8 2 -50 -6 -97z m-2745 48 c-4 -49 -5 -50 -8 -14 -3 34 2 66 10 66 2 0 1
-24 -2 -52z m2648 -14 c-12 -33 -23 -63 -24 -69 -26 -119 -31 -130 -53 -133
-21 -3 -22 -1 -15 45 3 26 10 53 14 58 5 6 11 28 15 50 4 22 9 49 12 60 l6 20
7 -20 c6 -17 8 -15 14 13 4 18 11 30 16 27 5 -3 12 0 15 6 17 27 14 -4 -7 -57z
m239 34 c-3 -8 -6 -5 -6 6 -1 11 2 17 5 13 3 -3 4 -12 1 -19z m123 -7 c0 -40
10 -66 20 -51 5 8 10 1 15 -20 4 -18 3 -35 -2 -39 -5 -3 -12 -13 -15 -22 -8
-21 -68 -44 -68 -26 0 7 -7 3 -15 -7 -15 -19 -15 -19 -14 5 0 13 4 33 9 44 8
18 9 18 10 -5 2 -17 5 -10 11 20 18 84 32 130 40 130 5 0 9 -13 9 -29z m-2862
-50 c6 -20 10 -28 11 -18 1 21 20 18 34 -5 20 -30 -36 -108 -60 -84 -4 3 1 6
10 6 9 0 17 7 17 15 0 8 -7 15 -16 15 -8 0 -13 -4 -10 -8 2 -4 -11 -9 -31 -10
-20 -2 -40 -5 -44 -8 -4 -2 -10 5 -14 16 -4 11 -11 18 -16 15 -5 -4 -8 11 -8
32 1 36 2 36 8 9 3 -17 9 -29 14 -28 4 1 17 2 29 2 21 0 21 0 2 -15 -27 -21 4
-20 34 1 31 22 28 60 -8 94 l-30 28 34 -10 c28 -9 37 -18 44 -47z m3412 27 c0
-24 -3 -29 -9 -18 -6 8 -7 18 -5 22 3 4 -1 8 -8 8 -9 0 -9 3 2 10 21 13 20 14
20 -22z m-1833 -24 c3 3 0 12 -7 21 -9 10 -9 15 -1 15 11 0 51 -57 51 -73 0
-11 -52 18 -74 41 -10 12 -15 26 -11 33 6 8 13 3 22 -15 8 -15 17 -25 20 -22z
m742 -110 c-6 -38 -14 -90 -18 -116 -8 -53 -16 -66 -24 -43 -4 8 -2 15 2 15 5
0 4 14 -2 30 -10 25 -8 39 7 78 10 26 18 55 17 66 0 16 20 48 27 41 1 -1 -3
-33 -9 -71z m54 -92 c-27 -20 -46 12 -37 63 8 53 28 73 21 22 -3 -20 -1 -39 3
-42 10 -6 19 28 22 80 1 22 4 6 5 -35 3 -63 1 -77 -14 -88z m-2723 122 c0 -2
-7 -4 -15 -4 -8 0 -15 4 -15 10 0 5 7 7 15 4 8 -4 15 -8 15 -10z m3260 -4 c0
-5 -4 -10 -10 -10 -5 0 -10 5 -10 10 0 6 5 10 10 10 6 0 10 -4 10 -10z m-3026
-31 c-3 -5 10 -6 28 -4 18 3 27 2 19 -1 -11 -5 -11 -8 0 -15 11 -7 10 -9 -3
-9 -9 0 -24 -10 -32 -22 -15 -21 -16 -21 -17 -3 -1 11 -1 23 0 27 0 4 -4 19
-9 34 -9 24 -9 25 5 14 8 -7 12 -16 9 -21z m-64 -4 c0 -14 -4 -25 -9 -25 -12
0 -23 29 -15 41 10 18 24 9 24 -16z m167 -35 c3 -10 2 -11 -4 -4 -4 6 -15 14
-23 17 -11 5 -9 6 4 4 11 -1 21 -9 23 -17z m-167 -122 c0 -67 -3 -119 -6 -115
-5 5 -14 86 -17 152 0 11 -6 24 -11 28 -8 6 -7 10 2 14 6 2 12 13 12 24 0 10
5 19 10 19 6 0 10 -47 10 -122z m915 112 c3 -6 -5 -10 -19 -10 -16 0 -33 -11
-49 -31 -20 -26 -25 -28 -30 -14 -4 9 -3 14 3 10 6 -3 10 -1 10 6 0 35 68 66
85 39z m-996 -99 c-2 -91 -18 -137 -23 -68 -1 6 -4 14 -7 17 -11 9 -17 100 -7
100 5 0 6 -4 3 -10 -3 -5 -1 -10 4 -10 6 0 12 5 12 10 1 6 3 15 4 20 1 6 3 12
4 15 0 3 3 5 6 5 3 0 5 -36 4 -79z m256 -21 c3 -64 2 -90 -5 -80 -5 8 -10 38
-10 67 0 42 -3 51 -15 47 -10 -4 -15 0 -15 15 0 12 6 21 15 21 8 0 15 8 15 17
0 9 2 14 5 12 2 -3 7 -47 10 -99z m-86 26 c-13 -15 -19 -3 -12 24 6 22 7 22
14 4 3 -10 3 -23 -2 -28z m-32 -28 c-3 -7 -5 -2 -5 12 0 14 2 19 5 13 2 -7 2
-19 0 -25z m2629 4 c-17 -16 -18 -16 -5 5 7 12 15 20 18 17 3 -2 -3 -12 -13
-22z m-1966 8 c0 -5 -5 -10 -11 -10 -5 0 -7 5 -4 10 3 6 8 10 11 10 2 0 4 -4
4 -10z m-630 -42 c0 -23 -2 -39 -5 -37 -8 9 -12 79 -4 79 5 0 9 -19 9 -42z
m-143 -35 c-3 -10 -5 -2 -5 17 0 19 2 27 5 18 2 -10 2 -26 0 -35z m2697 22
c-9 -14 -19 -23 -22 -20 -5 4 26 45 35 45 2 0 -4 -11 -13 -25z m-34 5 c0 -5
-9 -10 -21 -10 -11 0 -17 5 -14 10 3 6 13 10 21 10 8 0 14 -4 14 -10z m736
-27 c7 -26 7 -26 15 -5 10 26 22 28 39 7 16 -20 23 -82 10 -90 -5 -3 -10 -20
-10 -36 0 -42 -15 -65 -48 -77 -55 -19 -109 10 -100 54 2 13 7 11 26 -6 26
-25 28 -19 6 16 -9 13 -14 27 -10 31 3 3 6 1 6 -5 0 -7 5 -12 10 -12 6 0 10
13 10 29 0 23 4 28 18 24 29 -8 53 -30 55 -52 1 -12 5 -21 10 -21 5 0 5 9 2
20 -12 37 -16 92 -6 86 5 -3 11 1 14 9 5 12 2 12 -18 3 -16 -7 -32 -7 -52 0
-17 6 -21 11 -10 11 9 1 17 6 17 12 0 5 -4 8 -8 5 -5 -3 -9 1 -9 9 0 26 26 16
33 -12z m327 1 c-18 -8 -33 -18 -33 -24 0 -5 -9 -14 -21 -20 -19 -11 -20 -9
-17 17 3 24 8 29 43 34 60 9 63 9 28 -7z m-1112 -21 c-12 -20 -14 -14 -5 12 4
9 9 14 11 11 3 -2 0 -13 -6 -23z m32 7 c-3 -12 -8 -19 -11 -16 -5 6 5 36 12
36 2 0 2 -9 -1 -20z m659 -2 c-7 -7 -12 -8 -12 -2 0 14 12 26 19 19 2 -3 -1
-11 -7 -17z m-3195 -95 c-2 -16 -4 -5 -4 22 0 28 2 40 4 28 2 -13 2 -35 0 -50z
m3386 48 c7 -28 -3 -69 -18 -75 -10 -3 -12 1 -8 17 3 12 6 34 7 50 1 31 11 36
19 8z m-3535 -46 c2 -43 -1 -55 -13 -55 -8 0 -15 5 -15 11 0 5 5 7 10 4 6 -3
10 -1 10 4 0 6 -4 11 -9 11 -5 0 -8 12 -6 28 2 15 4 33 4 40 1 6 4 12 9 12 4
0 8 -25 10 -55z m169 -7 c-2 -13 -4 -5 -4 17 -1 22 1 32 4 23 2 -10 2 -28 0
-40z m2480 -5 c-3 -10 -5 -2 -5 17 0 19 2 27 5 18 2 -10 2 -26 0 -35z m-2566
-208 c-8 -51 -9 -42 -6 60 5 168 9 195 12 90 2 -49 -1 -117 -6 -150z m139 218
c0 -10 -3 -36 -7 -58 -7 -39 -7 -40 -13 -10 -7 37 -1 85 11 85 5 0 9 -8 9 -17z
m200 -28 c-18 -22 -30 -8 -17 19 10 20 13 22 20 10 5 -9 4 -21 -3 -29z m1105
28 c18 -6 17 -7 -8 -14 -30 -8 -77 6 -77 23 0 9 37 5 85 -9z m195 7 c-8 -5
-24 -10 -35 -10 -17 0 -17 2 -5 10 8 5 24 10 35 10 17 0 17 -2 5 -10z m-1243
-25 c6 -17 -20 -50 -52 -68 -18 -9 -19 -9 -5 8 14 17 14 17 -18 1 -19 -10 -36
-15 -39 -12 -3 3 3 9 13 12 10 4 29 16 42 27 12 11 22 15 22 9 0 -6 7 -9 15
-6 11 5 12 11 4 25 -7 13 -6 19 1 19 6 0 13 -7 17 -15z m3244 -8 c-10 -9 -11
-8 -5 6 3 10 9 15 12 12 3 -3 0 -11 -7 -18z m-3671 3 c0 -5 -2 -10 -4 -10 -2
0 -12 -3 -22 -7 -16 -6 -17 -5 -4 10 17 19 30 22 30 7z m2680 -4 c0 -7 -11
-16 -24 -18 -21 -4 -23 -3 -13 14 14 21 37 24 37 4z m860 -57 c0 -3 -16 -5
-35 -3 -26 2 -35 -2 -35 -13 0 -9 -3 -14 -6 -11 -3 3 -2 22 1 41 l7 36 34 -22
c19 -12 34 -25 34 -28z m-3534 -139 c-1 -68 -3 -75 -21 -75 -14 0 -21 -9 -26
-33 -8 -38 -13 -46 -30 -40 -8 3 -7 9 4 20 15 14 15 17 1 22 -8 3 -12 10 -9
16 4 6 10 8 14 6 4 -3 6 43 4 102 -2 70 0 102 7 92 5 -8 6 -26 3 -39 -4 -17
-2 -22 8 -19 9 3 13 16 11 36 -2 16 2 33 8 37 7 4 7 12 0 25 -7 13 -6 20 3 23
15 5 24 -64 23 -173z m91 118 c-2 -13 -4 -3 -4 22 0 25 2 35 4 23 2 -13 2 -33
0 -45z m3163 40 c-1 -34 -34 -68 -66 -68 -26 0 -27 1 -9 14 11 8 26 11 35 8
13 -5 13 -3 2 10 -14 17 -1 35 17 24 5 -4 7 3 4 14 -3 11 0 20 6 20 6 0 11
-10 11 -22z m-590 -50 c13 -40 2 -34 -16 7 -8 20 -11 41 -7 48 5 8 9 6 11 -8
2 -11 7 -32 12 -47z m780 42 c-6 -11 -13 -20 -16 -20 -2 0 0 9 6 20 6 11 13
20 16 20 2 0 0 -9 -6 -20z m-735 -42 c26 -51 26 -52 7 -71 -19 -18 -19 -18
-24 7 -3 14 -1 23 3 20 5 -3 9 5 9 18 0 18 -2 20 -10 8 -7 -11 -9 -7 -7 15 1
20 -2 29 -10 28 -7 -2 -13 4 -13 12 0 30 19 14 45 -37z m-2590 32 c3 -5 1 -10
-4 -10 -6 0 -11 5 -11 10 0 6 2 10 4 10 3 0 8 -4 11 -10z m3471 -19 c0 -11 -5
-17 -13 -14 -10 4 -11 9 -2 19 15 18 15 18 15 -5z m-278 -21 c7 0 12 -4 12 -9
0 -4 -11 -6 -25 -3 -14 2 -22 8 -19 13 3 5 0 9 -5 9 -6 0 -11 5 -11 12 0 6 7
4 18 -5 10 -10 24 -17 30 -17z m-53 0 c3 -5 1 -10 -4 -10 -6 0 -11 5 -11 10 0
6 2 10 4 10 3 0 8 -4 11 -10z m155 1 c-8 -5 -31 -12 -50 -15 -35 -7 -35 -7
-10 8 14 9 36 15 50 15 19 0 21 -2 10 -8z m-3310 -32 c0 -6 -4 -7 -10 -4 -5 3
-10 11 -10 16 0 6 5 7 10 4 6 -3 10 -11 10 -16z m3415 11 c-3 -5 -12 -10 -18
-10 -7 0 -6 4 3 10 19 12 23 12 15 0z m-3656 -16 c-11 -14 -10 -18 6 -31 20
-15 20 -15 0 -11 -24 4 -33 37 -13 49 20 13 22 11 7 -7z m208 -46 c-2 -13 -4
-5 -4 17 -1 22 1 32 4 23 2 -10 2 -28 0 -40z m3273 48 c0 -2 -13 -6 -29 -8
-17 -2 -28 -1 -25 4 5 8 54 12 54 4z m132 -3 c-6 -2 -10 -9 -7 -14 4 -5 -2 -6
-11 -2 -13 5 -15 3 -9 -7 5 -9 4 -11 -4 -6 -6 4 -18 0 -27 -8 -8 -9 -24 -16
-35 -16 -11 0 -17 -4 -14 -10 6 -10 -42 -26 -51 -17 -13 13 9 45 44 65 24 14
53 21 82 21 25 0 39 -3 32 -6z m149 -28 c1 6 5 -12 9 -40 10 -67 5 -68 -14 -2
-17 59 -20 85 -6 52 5 -11 10 -15 11 -10z m-3524 -32 c-3 -10 -5 -2 -5 17 0
19 2 27 5 18 2 -10 2 -26 0 -35z m3073 17 c0 -11 -4 -20 -9 -20 -6 0 -9 9 -8
20 1 11 5 20 9 20 4 0 8 -9 8 -20z m127 4 c2 -6 -3 -14 -12 -18 -11 -4 -14 -2
-10 7 4 6 -1 3 -9 -7 -16 -20 -21 -11 -10 19 7 17 35 17 41 -1z m-1290 -26
c-3 -7 -5 -2 -5 12 0 14 2 19 5 13 2 -7 2 -19 0 -25z m1203 25 c0 -5 -5 -15
-10 -23 -8 -12 -10 -11 -10 8 0 12 5 22 10 22 6 0 10 -3 10 -7z m23 -18 c-8
-22 -22 -18 -16 5 3 11 9 17 14 15 4 -3 6 -12 2 -20z m424 3 c-3 -8 -6 -5 -6
6 -1 11 2 17 5 13 3 -3 4 -12 1 -19z m-3787 -9 c0 -6 9 -9 20 -6 15 4 20 0 20
-13 0 -14 -5 -17 -22 -12 -19 4 -21 3 -12 -9 11 -16 11 -55 0 -112 -7 -33 -25
-61 -27 -40 0 4 -2 28 -5 53 -12 125 -13 140 -4 135 6 -4 10 -1 10 4 0 6 5 11
10 11 6 0 10 -5 10 -11z m3721 1 c0 8 16 -32 36 -89 l35 -104 -23 -18 c-12 -9
-35 -24 -49 -33 l-27 -15 -8 82 c-10 113 -11 167 -3 167 3 0 9 -6 11 -12 3 -7
6 -2 6 12 1 20 3 22 11 10 9 -13 10 -13 11 0z m-3106 -20 c3 -5 1 -10 -4 -10
-6 0 -11 -7 -11 -15 0 -8 8 -15 18 -15 14 0 15 2 2 10 -17 11 -10 13 14 4 11
-4 13 -14 10 -33 -4 -20 -1 -30 10 -34 16 -7 23 -37 8 -37 -17 0 -47 42 -44
61 4 21 -14 26 -21 7 -2 -7 -8 -1 -12 14 -11 43 11 78 30 48z m2793 2 c13 11
14 10 10 -2 -4 -11 -20 -15 -68 -13 -34 0 -66 5 -71 10 -6 6 14 7 52 1 45 -6
66 -5 77 4z m202 -12 c-6 -11 -13 -20 -16 -20 -2 0 0 9 6 20 6 11 13 20 16 20
2 0 0 -9 -6 -20z m-3413 -27 c-3 -10 -5 -4 -5 12 0 17 2 24 5 18 2 -7 2 -21 0
-30z m3245 -25 c-37 -20 -69 -37 -72 -38 -11 0 -8 39 3 48 20 15 70 29 104 29
30 -1 28 -3 -35 -39z m-92 12 c-6 -12 -16 -18 -23 -13 -8 5 -8 8 1 11 7 2 10
8 6 13 -3 5 2 9 11 9 13 0 14 -4 5 -20z m240 5 c0 -13 -60 -63 -65 -55 -3 6
-2 10 3 10 6 0 20 11 33 25 25 25 29 28 29 20z m-803 -79 c-3 -6 -10 -10 -16
-8 -7 1 -10 -2 -7 -7 4 -5 2 -13 -4 -16 -6 -4 -9 -1 -8 7 2 7 -4 12 -12 10
-11 -2 -9 2 4 13 17 12 17 17 5 31 -12 16 -11 15 14 -1 15 -10 26 -23 24 -29z
m43 19 c15 9 -48 -104 -78 -140 -14 -16 -29 -30 -34 -30 -9 0 -28 -25 -28 -38
0 -5 4 -5 10 -2 6 4 7 -2 1 -18 -5 -14 -15 -44 -22 -68 -10 -37 -13 -41 -20
-24 -11 29 -10 55 2 30 7 -15 8 -12 4 15 -4 27 -2 32 6 20 9 -12 10 -10 6 9
-8 33 34 116 89 179 40 46 44 55 33 70 -13 15 -12 16 3 4 9 -8 22 -11 28 -7z
m-113 -30 c0 -8 -4 -12 -9 -9 -5 3 -6 10 -3 15 9 13 12 11 12 -6z m828 -5 c-3
-5 -14 -10 -23 -11 -10 -1 -7 -4 8 -9 24 -7 23 -7 -12 -15 -48 -9 -72 -1 -36
13 14 6 29 16 33 21 3 6 13 11 21 11 8 0 12 -4 9 -10z m-3398 -67 c-3 -10 -5
-2 -5 17 0 19 2 27 5 18 2 -10 2 -26 0 -35z m1822 17 c3 0 15 -14 25 -32 18
-29 18 -31 2 -25 -10 4 -29 7 -42 7 -27 0 -30 15 -12 56 10 21 14 24 16 11 2
-9 7 -17 11 -17z m1698 8 c-3 -8 -6 -5 -6 6 -1 11 2 17 5 13 3 -3 4 -12 1 -19z
m-982 -8 c-8 -13 1 -13 26 1 19 10 19 9 9 -10 -6 -12 -14 -21 -19 -21 -4 0 -8
-6 -8 -12 0 -7 -12 -38 -27 -68 -19 -41 -26 -49 -25 -30 0 22 6 44 34 115 7
16 6 18 -6 8 -16 -16 -29 -17 -29 -2 0 5 5 7 10 4 6 -3 13 1 16 9 3 9 10 16
16 16 5 0 6 -4 3 -10z m761 -43 c-6 -27 -51 -61 -66 -52 -19 12 -10 39 23 66
35 30 53 24 43 -14z m103 -8 c1 -4 -13 -9 -31 -13 -17 -3 -29 -8 -26 -11 2 -3
19 -1 36 4 24 7 36 6 47 -5 18 -18 20 -50 4 -60 -8 -4 -9 1 -5 17 6 21 6 22
-5 5 -9 -14 -8 -21 5 -34 11 -11 16 -12 16 -4 0 7 5 10 10 7 24 -15 8 -31 -32
-33 -24 -1 -55 -5 -70 -8 -33 -7 -71 4 -63 17 4 5 2 9 -4 9 -5 0 -11 -5 -13
-12 -3 -8 -7 -6 -11 5 -4 10 -2 16 5 14 6 -1 13 4 15 11 3 7 -3 12 -14 13 -10
0 2 6 26 14 41 13 45 13 62 -8 22 -28 20 -30 -20 -16 -38 13 -47 8 -31 -20 11
-22 35 -28 45 -11 4 6 23 8 43 5 30 -4 33 -4 15 4 -16 7 -23 19 -23 37 0 21
-3 24 -14 15 -11 -9 -15 -8 -20 5 -3 9 -13 14 -20 11 -8 -3 -17 1 -20 9 -3 8
-1 12 4 9 6 -4 7 6 4 24 -6 28 -5 30 32 33 36 3 50 -6 53 -33z m38 19 c-3 -8
-6 -5 -6 6 -1 11 2 17 5 13 3 -3 4 -12 1 -19z m50 -13 c15 -25 16 -38 3 -30
-6 3 -7 -1 -3 -10 4 -13 8 -14 14 -4 6 10 12 4 23 -21 15 -36 13 -45 -23 -90
-16 -20 -21 -21 -21 -8 0 9 -5 29 -11 45 -16 40 -22 96 -9 88 7 -4 7 2 0 20
-13 34 -13 36 3 33 6 -2 17 -12 24 -23z m33 -3 c0 -15 -2 -15 -10 -2 -13 20
-13 33 0 25 6 -3 10 -14 10 -23z m-96 2 c3 -8 2 -12 -4 -9 -6 3 -10 10 -10 16
0 14 7 11 14 -7z m-3280 -9 c-4 -8 -10 -15 -15 -15 -4 0 -6 7 -3 15 4 8 10 15
15 15 4 0 6 -7 3 -15z m721 5 c3 -6 -1 -7 -9 -4 -18 7 -21 14 -7 14 6 0 13 -4
16 -10z m-25 -10 c8 -5 12 -11 10 -14 -3 -2 -14 2 -24 10 -22 15 -10 19 14 4z
m1616 -1 c3 -6 0 -17 -8 -25 -13 -13 -16 -13 -28 1 -12 14 -11 18 1 26 19 12
26 11 35 -2z m-439 -36 c-3 -10 -5 -4 -5 12 0 17 2 24 5 18 2 -7 2 -21 0 -30z
m-1202 -19 c31 -20 32 -34 2 -34 -22 0 -65 -24 -79 -44 -18 -26 -6 18 15 54
25 45 28 46 62 24z m-808 -31 c-3 -10 -5 -4 -5 12 0 17 2 24 5 18 2 -7 2 -21
0 -30z m542 -7 c-3 -3 -11 5 -18 17 -13 21 -12 21 5 5 10 -10 16 -20 13 -22z
m709 24 c-10 -6 -25 -7 -40 -1 -20 9 -18 10 17 10 31 0 36 -2 23 -9z m2082
-30 c0 -5 -8 -10 -17 -10 -15 0 -16 2 -3 10 19 12 20 12 20 0z m-2521 -2 c-2
-2 -22 -19 -43 -38 -28 -26 -36 -29 -27 -13 12 23 49 53 65 53 5 0 7 -1 5 -2z
m-780 -32 c7 -8 8 -17 3 -20 -6 -3 -12 3 -15 14 -6 24 -4 25 12 6z m3431 4 c0
-5 -10 -10 -22 -9 -22 0 -22 1 -3 9 11 5 21 9 23 9 1 1 2 -3 2 -9z m-167 -37
c-7 -2 -21 -2 -30 0 -10 3 -4 5 12 5 17 0 24 -2 18 -5z m-507 -45 c-9 -12 -16
-19 -16 -15 0 11 24 47 28 42 2 -2 -3 -14 -12 -27z m-2786 7 c0 -8 -4 -15 -10
-15 -5 0 -7 7 -4 15 4 8 8 15 10 15 2 0 4 -7 4 -15z m2481 -58 c-13 -13 -15
31 -3 60 5 14 8 10 10 -16 2 -18 -1 -38 -7 -44z m26 11 c-3 -7 -5 -2 -5 12 0
14 2 19 5 13 2 -7 2 -19 0 -25z m-1788 -54 c1 -9 -39 -34 -55 -34 -3 0 4 12
15 26 12 15 21 34 22 43 0 12 2 11 9 -4 5 -11 9 -25 9 -31z m-394 -5 c22 -41
11 -36 -14 7 -12 19 -16 32 -11 29 6 -3 17 -19 25 -36z m523 -63 c15 -8 59
-47 97 -88 l70 -73 -70 66 c-70 67 -97 85 -144 100 -25 7 -25 7 -3 8 13 1 35
-5 50 -13z m-288 0 c0 -2 -7 -7 -16 -10 -8 -3 -12 -2 -9 4 6 10 25 14 25 6z"/>
<path d="M60 1950 c0 -5 5 -10 11 -10 5 0 7 5 4 10 -3 6 -8 10 -11 10 -2 0 -4
-4 -4 -10z"/>
<path d="M3885 1860 c-3 -5 -2 -10 4 -10 5 0 13 5 16 10 3 6 2 10 -4 10 -5 0
-13 -4 -16 -10z"/>
<path d="M3520 1735 c0 -14 4 -25 9 -25 4 0 6 11 3 25 -2 14 -6 25 -8 25 -2 0
-4 -11 -4 -25z"/>
<path d="M3656 1707 c3 -10 9 -15 12 -12 3 3 0 11 -7 18 -10 9 -11 8 -5 -6z"/>
<path d="M285 1350 c-3 -6 1 -7 9 -4 18 7 21 14 7 14 -6 0 -13 -4 -16 -10z"/>
<path d="M3535 1030 c3 -5 8 -10 11 -10 2 0 4 5 4 10 0 6 -5 10 -11 10 -5 0
-7 -4 -4 -10z"/>
<path d="M3565 1020 c-3 -5 -1 -10 4 -10 6 0 11 5 11 10 0 6 -2 10 -4 10 -3 0
-8 -4 -11 -10z"/>
<path d="M3536 1003 c-12 -12 -6 -33 9 -33 8 0 15 6 15 14 0 17 -14 28 -24 19z"/>
<path d="M143 810 c0 -25 2 -35 4 -22 2 12 2 32 0 45 -2 12 -4 2 -4 -23z"/>
<path d="M3508 753 c7 -3 16 -2 19 1 4 3 -2 6 -13 5 -11 0 -14 -3 -6 -6z"/>
<path d="M2795 554 c-9 -14 -15 -27 -13 -30 2 -2 12 10 22 26 21 37 15 40 -9
4z"/>
<path d="M390 2985 c0 -8 5 -15 10 -15 6 0 10 7 10 15 0 8 -4 15 -10 15 -5 0
-10 -7 -10 -15z"/>
<path d="M1931 2999 c-1 -4 -8 -24 -16 -45 -14 -35 -14 -37 0 -20 8 11 15 23
15 28 0 4 9 8 20 8 11 0 20 5 20 11 0 6 -6 9 -14 6 -8 -3 -17 -1 -20 6 -2 7
-5 9 -5 6z"/>
<path d="M2080 2990 c-8 -5 -12 -12 -9 -15 4 -3 12 1 19 10 14 17 11 19 -10 5z"/>
<path d="M2251 2969 c14 -19 24 -27 29 -20 3 7 20 11 36 9 16 -1 40 4 53 11
17 10 29 10 45 2 11 -5 32 -11 46 -13 15 -2 29 -12 35 -25 12 -29 25 -30 18
-2 -3 11 -15 24 -27 29 -59 22 -97 31 -107 25 -5 -4 -24 -1 -40 5 -22 10 -36
10 -54 2 -15 -7 -26 -8 -30 -2 -4 6 -11 10 -16 10 -6 0 0 -14 12 -31z m83 12
c3 -5 -10 -11 -29 -13 -19 -2 -35 -1 -35 3 0 16 55 25 64 10z"/>
<path d="M2982 2966 c-8 -21 -11 -40 -8 -43 7 -8 28 47 24 65 -2 8 -9 -2 -16
-22z"/>
<path d="M3102 2983 c5 -7 7 -21 4 -30 -5 -14 -4 -15 4 -7 9 9 24 5 58 -14 55
-31 38 -41 -29 -18 -24 8 -48 11 -52 7 -5 -5 8 -25 28 -45 26 -26 35 -42 30
-54 -15 -35 -17 -60 -4 -67 9 -6 10 -1 5 18 -13 54 34 44 57 -11 l15 -37 -5
34 c-7 37 -6 37 51 -2 24 -17 26 -21 12 -29 -9 -5 -21 -6 -28 -2 -7 5 -8 3 -3
-6 6 -10 4 -12 -9 -7 -9 4 -14 3 -11 -2 6 -11 -1 -16 -38 -25 -24 -6 -28 -4
-23 11 3 10 1 25 -4 33 -7 11 -10 5 -10 -24 0 -37 1 -38 28 -32 25 6 26 5 9
-8 -18 -14 -17 -16 5 -53 13 -21 28 -48 34 -58 7 -11 19 -19 28 -17 10 2 16
-4 16 -18 0 -22 7 -25 30 -10 12 8 12 10 -5 10 -16 0 -17 2 -5 10 24 15 32
-13 8 -31 -16 -13 -18 -18 -7 -22 10 -4 9 -6 -3 -6 -10 -1 -18 -9 -18 -18 0
-14 2 -15 9 -4 5 7 14 11 20 7 6 -4 19 -2 30 4 21 11 54 3 45 -11 -3 -5 -10
-9 -15 -9 -6 0 -7 5 -4 10 8 14 -3 12 -50 -9 l-40 -18 55 2 c30 0 60 4 65 7 6
4 21 -2 34 -11 l23 -18 -65 -37 c-37 -20 -69 -41 -72 -46 -8 -13 -25 -13 -25
0 0 5 19 20 43 32 30 16 37 23 24 26 -9 2 -30 -7 -46 -20 -24 -19 -30 -31 -30
-63 0 -24 3 -33 7 -23 10 25 60 60 73 52 8 -4 9 -3 5 4 -3 6 2 16 13 21 26 14
34 14 25 -1 -4 -7 -3 -8 5 -4 6 4 8 12 5 18 -5 7 -1 9 9 5 10 -4 16 -2 14 5
-1 6 4 13 12 16 9 3 11 0 6 -8 -5 -9 -4 -11 4 -6 6 4 8 12 5 18 -5 8 -1 9 12
5 10 -4 1 8 -21 25 -22 18 -60 55 -85 82 -25 28 -55 60 -67 73 -12 13 -17 23
-11 23 7 0 7 4 -1 13 -12 16 -5 27 17 27 8 0 36 13 63 29 41 26 49 28 59 15 7
-8 18 -14 25 -14 7 0 18 -7 25 -15 17 -21 32 -19 66 7 15 13 39 22 53 20 25
-2 25 -1 4 9 -18 9 -27 7 -57 -16 -33 -25 -66 -28 -66 -6 0 5 -9 11 -20 14
-11 3 -29 21 -41 41 -22 38 -37 50 -18 15 12 -23 4 -36 -25 -41 -13 -2 -25 6
-33 22 l-14 25 3 -30 c2 -22 -2 -30 -15 -33 -16 -3 -17 -1 -5 18 12 20 9 25
-32 61 -25 21 -39 39 -31 39 8 0 24 -8 35 -17 20 -17 20 -17 7 0 -18 22 -9 32
17 18 25 -13 45 -14 38 -2 -3 5 -18 12 -33 16 -16 3 -37 14 -47 23 -18 16 -19
16 -13 0 5 -13 0 -19 -18 -24 -31 -8 -58 2 -52 19 5 17 29 16 45 -3 10 -13 11
-13 6 3 -4 11 0 23 12 31 15 11 21 11 38 -6 12 -11 46 -33 76 -51 56 -31 90
-62 90 -80 0 -6 2 -8 5 -5 14 13 -20 56 -63 80 -64 36 -137 104 -120 112 9 4
9 5 -2 4 -8 -1 -28 1 -44 6 l-29 7 29 27 29 27 30 -30 c17 -17 46 -42 65 -58
29 -22 32 -29 20 -37 -12 -8 -11 -10 7 -10 27 0 40 18 19 26 -26 10 -18 22 21
33 35 10 39 9 61 -19 13 -17 28 -30 34 -30 6 0 0 9 -13 20 -13 10 -18 19 -11
20 18 0 15 24 -8 53 -21 27 -26 42 -11 32 5 -3 12 -1 16 5 7 11 -84 14 -122 4
-18 -5 -20 -10 -12 -31 11 -31 11 -33 -1 -33 -5 0 -10 9 -10 20 0 11 -5 20
-11 20 -6 0 -9 7 -5 15 9 24 -60 19 -97 -7 l-32 -22 19 22 c19 22 19 22 -7 20
-14 -1 -23 -6 -21 -10 3 -4 0 -8 -5 -8 -6 0 -11 4 -11 9 0 5 -16 9 -35 8 -27
-1 -32 -4 -23 -14z m270 -18 c-2 -14 -6 -25 -8 -25 -2 0 -4 11 -4 25 0 14 4
25 9 25 4 0 6 -11 3 -25z"/>
<path d="M3739 2958 c-1 -24 -2 -62 -4 -86 -1 -23 2 -45 6 -48 5 -3 9 25 9 63
0 37 3 78 6 91 4 13 2 22 -5 22 -6 0 -11 -19 -12 -42z"/>
<path d="M3907 2979 c4 -13 8 -18 11 -10 2 7 -1 18 -6 23 -8 8 -9 4 -5 -13z"/>
<path d="M2015 2970 c-7 -12 2 -12 30 0 19 8 19 9 -2 9 -12 1 -25 -3 -28 -9z"/>
<path d="M3870 2965 c1 -5 7 -19 15 -29 8 -11 15 -16 15 -12 0 5 7 3 15 -4 12
-10 15 -10 15 3 0 9 -10 19 -22 23 -13 4 -26 12 -30 18 -4 6 -8 7 -8 1z"/>
<path d="M395 2793 c4 -147 8 -187 18 -172 7 12 -5 339 -13 339 -6 0 -8 -67
-5 -167z"/>
<path d="M1134 2875 c0 -49 1 -71 3 -48 2 23 2 64 0 90 -2 26 -3 8 -3 -42z"/>
<path d="M1800 2947 c0 -1 -4 -18 -10 -36 -5 -19 -6 -30 -1 -25 10 11 24 64
16 64 -3 0 -5 -1 -5 -3z"/>
<path d="M2158 2943 c7 -3 16 -2 19 1 4 3 -2 6 -13 5 -11 0 -14 -3 -6 -6z"/>
<path d="M680 2925 c-17 -21 -8 -28 15 -11 11 8 14 15 8 19 -6 4 -16 0 -23 -8z"/>
<path d="M1942 2931 c-11 -6 -9 -9 6 -13 15 -4 19 -2 15 8 -6 16 -4 16 -21 5z"/>
<path d="M2335 2918 c9 -15 21 -25 27 -22 5 3 8 7 6 8 -2 0 -14 10 -27 21
l-24 20 18 -27z"/>
<path d="M616 2905 c-22 -33 -21 -34 24 -28 29 4 48 0 75 -16 25 -15 44 -19
63 -14 23 5 19 9 -38 25 -36 10 -76 18 -89 18 -20 0 -22 3 -13 12 7 7 12 16
12 20 0 16 -18 7 -34 -17z"/>
<path d="M730 2915 c-11 -13 -9 -15 15 -15 16 0 25 5 23 12 -7 19 -24 20 -38
3z"/>
<path d="M2440 2910 c8 -5 20 -10 25 -10 6 0 3 5 -5 10 -8 5 -19 10 -25 10 -5
0 -3 -5 5 -10z"/>
<path d="M2640 2916 c0 -3 9 -10 20 -16 11 -6 20 -8 20 -6 0 3 -9 10 -20 16
-11 6 -20 8 -20 6z"/>
<path d="M3860 2910 c0 -5 5 -10 11 -10 5 0 7 5 4 10 -3 6 -8 10 -11 10 -2 0
-4 -4 -4 -10z"/>
<path d="M543 2895 c-8 -22 6 -33 17 -15 13 20 12 30 0 30 -6 0 -13 -7 -17
-15z"/>
<path d="M3800 2875 c0 -19 3 -35 8 -35 4 0 7 16 7 35 0 19 -3 35 -7 35 -5 0
-8 -16 -8 -35z"/>
<path d="M1884 2878 c-18 -59 -143 -212 -159 -196 -2 2 5 23 16 47 30 69 17
69 -15 1 -16 -34 -46 -80 -66 -102 -31 -36 -43 -42 -77 -42 -39 -1 -41 -3 -72
-61 -40 -78 -161 -239 -236 -316 -88 -90 -203 -172 -319 -229 -97 -47 -143
-59 -159 -43 -4 3 -1 13 6 22 6 9 -19 -13 -58 -48 -76 -69 -101 -84 -183 -112
-55 -19 -142 -26 -142 -11 0 4 15 17 33 29 44 30 114 103 99 103 -7 0 -12 -4
-12 -10 0 -9 -101 -90 -113 -90 -4 0 -7 16 -7 35 0 19 -4 35 -10 35 -6 0 -7
-38 -4 -102 6 -105 14 -145 14 -70 0 31 4 42 15 42 8 0 15 -6 15 -12 0 -9 3
-9 8 -2 12 17 39 23 51 11 6 -6 11 -27 11 -46 0 -19 3 -31 7 -27 4 4 7 26 8
49 0 35 3 42 20 42 16 0 21 -8 25 -47 3 -26 9 -50 13 -54 9 -9 8 7 -2 68 -7
46 -7 47 22 59 16 7 43 23 58 37 34 28 36 20 9 -48 -11 -28 -16 -49 -11 -46 8
5 44 99 46 118 0 8 41 48 49 48 3 0 7 -19 9 -42 l4 -43 -1 47 c0 26 3 48 7 48
4 0 12 0 17 0 6 0 10 -18 10 -40 0 -22 5 -40 10 -40 6 0 10 19 10 42 0 75 19
28 29 -72 l10 -95 -3 107 c-2 80 1 108 10 112 18 7 52 -39 65 -88 15 -60 17
-64 18 -30 1 17 -10 53 -24 80 -14 27 -25 50 -25 51 0 0 14 6 32 12 38 14 42
10 73 -65 18 -44 25 -52 25 -33 0 14 -11 47 -24 72 l-25 46 47 27 c26 15 71
44 100 66 l52 39 0 -108 c0 -90 -18 -287 -34 -368 -14 -73 -17 -109 -7 -95 6
8 11 25 11 38 0 16 6 22 23 22 16 0 19 3 8 9 -17 11 -8 41 12 41 10 0 13 -8 9
-26 -3 -20 -2 -25 7 -19 7 4 10 13 7 21 -3 8 0 14 6 14 9 0 9 3 0 12 -16 16
-15 28 3 28 8 0 15 5 15 10 0 6 -3 10 -6 10 -11 0 -49 -23 -56 -34 -9 -14 -10
10 -2 42 6 22 44 32 44 11 0 -5 4 -8 10 -4 5 3 7 12 4 20 -5 12 4 14 43 12 42
-2 48 0 45 16 -2 10 3 26 10 35 12 15 11 16 -4 3 -10 -7 -18 -10 -19 -5 0 5
-4 -1 -9 -13 -6 -13 -18 -23 -30 -23 -26 0 -26 14 2 32 25 17 19 49 -9 47 -17
-1 -17 -2 0 -6 19 -5 22 -19 6 -29 -6 -3 -16 0 -21 7 -8 11 -8 10 -4 -4 9 -28
-11 -57 -41 -57 -23 0 -25 3 -19 31 3 17 6 45 6 61 0 17 4 27 10 23 5 -3 20 1
32 9 32 23 74 20 92 -6 9 -12 18 -20 21 -17 2 3 -3 16 -12 28 -13 20 -22 22
-57 18 -22 -3 -51 -9 -64 -13 l-23 -7 7 124 c7 134 17 159 61 159 32 0 61 -16
96 -52 16 -16 31 -28 33 -26 7 7 -58 69 -89 84 l-29 15 26 32 c14 18 62 82
108 144 80 107 85 111 128 118 48 8 95 28 105 46 4 6 -11 1 -34 -10 -22 -12
-54 -21 -70 -21 -29 0 -30 0 -15 28 7 15 14 32 14 38 0 7 6 12 13 11 52 -2 71
6 111 46 23 24 57 49 74 56 17 7 39 22 49 33 18 20 18 20 25 -8 6 -28 6 -27 6
6 -1 23 12 57 36 98 20 35 36 68 36 73 0 5 5 9 11 9 6 0 9 -9 6 -20 -3 -11 -2
-20 3 -20 8 0 20 34 17 47 -4 16 -37 8 -43 -9z"/>
<path d="M2965 2868 c3 -31 0 -38 -13 -38 -9 0 -24 -5 -32 -10 -13 -8 -13 -11
3 -27 10 -11 17 -13 17 -5 0 7 -5 12 -11 12 -5 0 -7 5 -4 10 9 14 42 12 48 -2
9 -21 5 35 -4 67 -8 28 -8 27 -4 -7z"/>
<path d="M3923 2865 c0 -22 2 -30 4 -17 2 12 2 30 0 40 -3 9 -5 -1 -4 -23z"/>
<path d="M2196 2875 c19 -15 19 -15 -3 -34 l-22 -19 22 -6 c12 -3 26 -1 31 4
7 7 6 10 -2 10 -6 0 -9 7 -6 15 7 17 -12 45 -29 45 -6 0 -2 -7 9 -15z"/>
<path d="M2120 2865 c-10 -12 -10 -18 1 -32 13 -15 11 -16 -16 -9 -16 4 -39 7
-50 7 -10 0 -25 5 -32 11 -8 7 -13 7 -13 0 0 -5 7 -12 15 -16 8 -3 12 -12 9
-19 -3 -8 2 -17 12 -21 14 -5 15 -4 4 9 -14 16 -2 20 52 16 16 -1 35 6 47 18
27 27 26 30 -1 23 -21 -5 -22 -4 -9 11 7 9 9 17 3 17 -5 0 -15 -7 -22 -15z"/>
<path d="M2359 2844 c-11 -23 -12 -31 -4 -24 10 8 16 7 24 -7 9 -14 10 -9 5
22 -4 22 -7 41 -8 41 0 1 -8 -14 -17 -32z"/>
<path d="M2240 2855 c-11 -13 -10 -14 4 -9 9 3 16 10 16 15 0 13 -6 11 -20 -6z"/>
<path d="M3870 2845 c0 -9 -7 -18 -15 -21 -8 -4 -12 -11 -8 -17 4 -6 -2 -8
-15 -5 -12 4 -20 2 -16 -3 8 -13 -18 -11 -66 6 -49 17 -64 19 -55 5 3 -5 22
-12 41 -16 20 -4 38 -13 41 -21 3 -8 13 -11 24 -8 11 4 19 2 19 -4 0 -6 12
-11 28 -11 19 0 23 -3 13 -9 -11 -7 -11 -10 0 -15 8 -3 -2 -4 -21 -2 -19 1
-44 7 -54 11 -14 6 -17 5 -12 -3 4 -7 1 -12 -9 -12 -17 0 -45 -23 -45 -36 0
-4 -8 -13 -17 -20 -10 -7 -13 -13 -8 -14 16 0 31 13 44 38 9 16 20 22 44 21
26 0 28 -2 12 -8 -11 -5 -26 -6 -33 -4 -16 7 -7 -19 25 -70 13 -21 25 -52 26
-68 2 -31 2 -31 47 -24 25 4 57 7 73 6 15 -1 27 3 27 9 0 5 -3 10 -7 11 -5 0
-28 2 -53 4 -32 3 -39 1 -25 -5 16 -7 17 -9 3 -9 -9 -1 -24 -4 -34 -8 -14 -5
-16 -2 -12 15 4 12 2 25 -3 28 -23 14 -4 24 44 22 l52 -2 -48 -3 c-69 -6 -47
-23 29 -23 47 0 63 3 58 12 -4 6 -7 28 -6 48 1 29 -5 43 -33 70 -31 30 -33 35
-20 54 21 29 19 36 -9 23 -13 -7 -22 -15 -20 -19 7 -11 -8 -10 -26 2 -12 8
-11 12 8 30 19 18 31 60 17 60 -3 0 -5 -7 -5 -15z m-48 -178 c-15 -7 -26 -7
-33 0 -7 7 1 10 23 10 31 1 32 0 10 -10z m53 -7 c-4 -6 8 -10 29 -10 25 0 36
-4 36 -15 0 -12 -14 -15 -64 -15 -75 0 -91 13 -44 34 40 18 51 19 43 6z"/>
<path d="M2525 2840 c-8 -12 2 -30 17 -30 6 0 6 6 -2 15 -11 13 -10 14 5 9 13
-5 16 -4 11 4 -9 15 -23 15 -31 2z"/>
<path d="M2810 2843 c8 -3 23 -12 33 -21 21 -19 23 -9 1 12 -8 9 -23 16 -32
15 -14 0 -14 -2 -2 -6z"/>
<path d="M2447 2833 c8 -3 11 -14 7 -27 -3 -14 1 -28 12 -37 16 -13 16 -12 3
8 -18 30 -4 41 22 17 l21 -19 -19 33 c-11 20 -25 32 -38 31 -11 0 -14 -3 -8
-6z"/>
<path d="M2755 2830 c-13 -6 -15 -9 -5 -9 8 0 22 4 30 9 18 12 2 12 -25 0z"/>
<path d="M1890 2815 c-19 -22 -8 -25 13 -3 9 10 13 18 8 18 -5 0 -14 -7 -21
-15z"/>
<path d="M3638 2823 c7 -3 16 -2 19 1 4 3 -2 6 -13 5 -11 0 -14 -3 -6 -6z"/>
<path d="M2280 2797 c-12 -21 -12 -21 6 -7 10 8 20 15 22 16 2 1 -1 4 -5 7 -5
3 -15 -4 -23 -16z"/>
<path d="M2130 2795 c-14 -8 -20 -14 -14 -15 5 0 19 7 30 15 24 18 16 19 -16
0z"/>
<path d="M2078 2793 c7 -3 16 -2 19 1 4 3 -2 6 -13 5 -11 0 -14 -3 -6 -6z"/>
<path d="M2810 2790 c0 -5 5 -10 10 -10 6 0 10 5 10 10 0 6 -4 10 -10 10 -5 0
-10 -4 -10 -10z"/>
<path d="M3680 2775 c22 -24 47 -35 36 -16 -4 5 -3 11 1 14 5 2 2 2 -5 1 -7
-2 -15 3 -18 11 -4 8 -13 15 -22 15 -12 0 -10 -6 8 -25z"/>
<path d="M1897 2769 c7 -7 15 -10 18 -7 3 3 -2 9 -12 12 -14 6 -15 5 -6 -5z"/>
<path d="M2210 2771 c0 -5 -8 -11 -17 -13 -15 -3 -14 -5 5 -10 12 -3 20 -2 16
3 -3 5 2 9 11 9 9 0 13 5 10 10 -8 13 -25 13 -25 1z"/>
<path d="M2430 2773 c0 -6 8 -17 18 -24 16 -13 16 -13 2 6 -8 11 -16 22 -17
24 -2 2 -3 0 -3 -6z"/>
<path d="M2669 2764 c-6 -7 1 -19 18 -35 l26 -24 -16 25 c-23 33 -21 38 7 33
13 -3 26 -1 29 4 8 12 -53 10 -64 -3z"/>
<path d="M1122 2750 c0 -14 2 -19 5 -12 2 6 2 18 0 25 -3 6 -5 1 -5 -13z"/>
<path d="M2120 2766 c0 -3 9 -10 20 -16 11 -6 20 -8 20 -6 0 3 -9 10 -20 16
-11 6 -20 8 -20 6z"/>
<path d="M1970 2750 c0 -5 4 -10 9 -10 5 0 18 -3 28 -6 16 -6 16 -5 -2 9 -23
19 -35 21 -35 7z"/>
<path d="M2578 2743 c7 -3 16 -2 19 1 4 3 -2 6 -13 5 -11 0 -14 -3 -6 -6z"/>
<path d="M2813 2740 c2 -8 12 -16 23 -17 13 -2 15 -1 4 4 -8 3 -19 11 -23 17
-6 7 -7 6 -4 -4z"/>
<path d="M2865 2740 c3 -5 11 -10 16 -10 6 0 7 5 4 10 -3 6 -11 10 -16 10 -6
0 -7 -4 -4 -10z"/>
<path d="M2970 2744 c0 -6 -8 -19 -18 -30 -62 -67 -74 -93 -78 -161 l-3 -68 8
57 c8 55 14 68 74 158 16 23 26 44 23 48 -3 3 -6 1 -6 -4z"/>
<path d="M2912 2731 c-11 -7 -11 -9 2 -14 10 -4 16 -1 16 8 0 17 -1 17 -18 6z"/>
<path d="M3071 2683 c0 -34 4 -65 9 -68 12 -7 12 34 1 90 -8 38 -9 37 -10 -22z"/>
<path d="M2730 2700 c8 -5 28 -10 44 -10 39 0 30 6 -19 13 -27 4 -35 3 -25 -3z"/>
<path d="M3630 2700 c-12 -8 -10 -10 8 -10 13 0 20 4 17 10 -7 12 -6 12 -25 0z"/>
<path d="M1111 2684 c0 -11 3 -14 6 -6 3 7 2 16 -1 19 -3 4 -6 -2 -5 -13z"/>
<path d="M2990 2650 c-8 -19 -15 -39 -18 -45 -2 -5 6 5 18 22 12 18 20 38 18
45 -3 7 -11 -3 -18 -22z"/>
<path d="M3580 2658 c0 -5 -8 -8 -17 -8 -17 -1 -17 -1 0 -11 18 -11 50 -76 42
-88 -7 -12 118 -10 133 2 18 14 15 29 -5 26 -10 -1 -24 -1 -31 0 -14 1 -46 67
-38 79 2 4 -16 7 -40 7 -24 0 -44 -3 -44 -7z"/>
<path d="M1790 2634 c-19 -51 -19 -54 -15 -54 8 0 37 71 32 77 -4 3 -11 -7
-17 -23z"/>
<path d="M2191 2651 c-8 -6 -9 -11 -3 -15 6 -3 14 -1 17 5 9 14 2 20 -14 10z"/>
<path d="M545 2630 c-3 -5 2 -10 11 -10 16 0 16 -1 1 -18 -22 -24 -21 -31 3
-25 11 3 20 0 20 -6 0 -6 -9 -11 -20 -11 -11 0 -20 -4 -20 -9 0 -5 9 -7 20 -4
33 9 23 -14 -12 -26 -17 -6 -28 -14 -25 -17 4 -4 19 -2 34 4 15 5 37 13 48 17
l20 7 -20 8 c-19 8 -19 9 -1 9 19 1 19 1 1 14 -17 13 -17 14 5 20 14 4 19 10
14 18 -6 10 -9 10 -12 1 -2 -7 -15 -12 -28 -12 -32 0 -22 17 20 36 l31 13 -42
1 c-23 0 -45 -4 -48 -10z"/>
<path d="M684 2625 c-4 -8 -14 -15 -23 -15 -13 0 -13 -2 -2 -9 7 -5 21 -6 31
-4 32 8 12 -34 -34 -73 -22 -19 -32 -32 -21 -28 11 4 28 14 38 22 16 14 20 13
46 -12 19 -18 37 -27 52 -24 22 3 21 5 -14 25 -46 28 -53 44 -35 81 14 28 14
28 -9 24 -18 -3 -22 -1 -17 12 3 9 3 16 0 16 -4 0 -9 -7 -12 -15z"/>
<path d="M1076 2577 c-39 -135 -107 -249 -215 -360 -62 -64 -69 -65 -155 -26
-32 14 -37 19 -23 24 9 4 17 12 17 18 0 5 -9 2 -20 -8 -28 -25 -26 -30 18 -43
20 -7 48 -20 61 -31 l24 -18 -27 -19 c-15 -10 -37 -27 -49 -38 -22 -18 -21
-18 8 -1 17 10 41 28 55 40 14 12 30 24 37 26 18 6 116 122 171 203 58 85 134
267 119 282 -3 3 -12 -19 -21 -49z"/>
<path d="M1555 2619 c-4 -6 -5 -12 -2 -15 2 -3 7 2 10 11 7 17 1 20 -8 4z"/>
<path d="M2331 2583 c-17 -15 -31 -35 -31 -45 0 -10 -10 -20 -24 -24 -31 -7
-43 -34 -16 -34 10 0 30 15 44 33 14 17 26 26 26 20 0 -7 5 -13 11 -13 8 0 8
4 0 14 -15 17 -5 44 20 51 10 4 19 11 19 16 0 16 -17 10 -49 -18z"/>
<path d="M401 2539 c-1 -33 3 -58 7 -55 12 7 15 116 4 116 -5 0 -10 -27 -11
-61z"/>
<path d="M646 2561 c-16 -18 -16 -18 11 -13 15 3 22 7 15 10 -6 2 -10 8 -6 13
9 15 -2 10 -20 -10z"/>
<path d="M1755 2559 c-4 -6 -5 -12 -2 -15 2 -3 7 2 10 11 7 17 1 20 -8 4z"/>
<path d="M2251 2565 c1 -19 18 -51 18 -35 0 8 -4 22 -9 30 -5 8 -9 11 -9 5z"/>
<path d="M360 2527 c0 -20 4 -37 10 -37 5 0 7 14 3 33 -8 45 -13 47 -13 4z"/>
<path d="M2137 2546 c-4 -11 -14 -12 -41 -6 -27 6 -33 5 -29 -6 8 -20 69 -18
77 2 4 9 5 19 2 21 -2 2 -6 -3 -9 -11z"/>
<path d="M2187 2539 c7 -7 15 -10 18 -7 3 3 -2 9 -12 12 -14 6 -15 5 -6 -5z"/>
<path d="M2366 2535 c-9 -24 -8 -28 8 -22 10 4 13 1 9 -9 -6 -16 -29 -19 -38
-4 -12 19 -32 10 -32 -15 0 -30 -3 -29 46 -9 28 11 43 24 50 46 9 25 8 28 -2
19 -9 -7 -17 -7 -24 0 -7 7 -12 5 -17 -6z"/>
<path d="M1917 2533 c-4 -3 -7 -23 -7 -43 0 -27 -7 -43 -30 -65 -20 -19 -28
-35 -24 -47 8 -28 -21 -22 -34 7 -9 20 -8 26 6 34 9 5 14 12 11 16 -4 3 -14
-1 -23 -10 -12 -12 -13 -21 -6 -35 14 -26 13 -33 -5 -26 -25 9 -17 -10 9 -22
19 -8 27 -8 35 2 6 7 22 11 35 9 13 -3 27 0 30 6 5 7 -2 11 -17 11 -37 0 -38
10 -5 42 26 26 31 38 31 77 -1 36 1 41 8 24 4 -13 13 -23 19 -23 6 0 8 -5 4
-12 -4 -7 -3 -8 4 -4 6 4 9 13 5 21 -4 11 2 15 19 15 14 0 25 6 25 14 0 11 -5
11 -26 0 -22 -11 -27 -11 -34 1 -9 16 -20 19 -30 8z"/>
<path d="M2229 2523 c-13 -16 -12 -17 4 -4 9 7 17 15 17 17 0 8 -8 3 -21 -13z"/>
<path d="M1698 2486 c-62 -57 -104 -76 -175 -77 l-58 -1 41 -9 c61 -14 136 17
199 81 60 61 57 65 -7 6z"/>
<path d="M2170 2515 c7 -8 20 -15 29 -15 13 1 13 3 -3 15 -26 19 -42 19 -26 0z"/>
<path d="M3063 2515 c-3 -9 -3 -18 0 -21 9 -9 27 6 27 22 0 19 -19 18 -27 -1z"/>
<path d="M3607 2524 c-8 -8 1 -24 14 -24 5 0 9 7 9 15 0 15 -12 20 -23 9z"/>
<path d="M3727 2510 c3 -11 7 -20 9 -20 2 0 4 9 4 20 0 11 -4 20 -9 20 -5 0
-7 -9 -4 -20z"/>
<path d="M3560 2500 c-13 -8 -12 -10 3 -10 9 0 17 5 17 10 0 12 -1 12 -20 0z"/>
<path d="M2951 2484 c0 -11 3 -14 6 -6 3 7 2 16 -1 19 -3 4 -6 -2 -5 -13z"/>
<path d="M3765 2490 c-3 -5 -2 -10 4 -10 5 0 13 5 16 10 3 6 2 10 -4 10 -5 0
-13 -4 -16 -10z"/>
<path d="M3881 2488 c-19 -5 -43 -7 -53 -5 -10 3 -18 1 -18 -4 0 -5 -9 -9 -20
-9 -24 0 -26 -13 -5 -30 8 -7 15 -19 15 -27 0 -7 21 -36 46 -63 37 -40 45 -54
40 -74 -4 -15 -1 -26 7 -29 7 -3 19 -23 25 -46 12 -38 28 -59 38 -48 3 2 -1
17 -8 31 -9 21 -9 32 0 47 15 23 16 42 2 34 -6 -4 -8 -11 -5 -16 4 -5 2 -9 -4
-9 -22 0 -21 22 1 41 l23 20 -32 -16 c-32 -15 -33 -15 -33 8 0 12 -7 33 -16
45 -20 29 -16 32 35 39 23 3 44 10 47 15 3 5 -12 6 -35 2 -41 -7 -58 7 -25 20
22 8 26 8 19 -4 -3 -5 -3 -10 2 -10 11 1 43 26 43 34 0 3 -8 6 -17 6 -15 0
-16 2 -3 10 12 8 11 10 -7 10 -13 0 -23 -4 -23 -10 0 -5 -8 -10 -18 -10 -27 0
-32 -9 -21 -37 8 -20 7 -24 -5 -20 -8 3 -16 1 -18 -5 -3 -7 -18 9 -35 34 l-31
46 57 8 c31 4 68 6 82 5 16 -1 29 4 32 13 7 19 -27 20 -82 4z"/>
<path d="M1996 2474 c-17 -12 -17 -14 -4 -14 9 0 20 5 23 11 11 17 2 18 -19 3z"/>
<path d="M2866 2471 c-4 -7 -5 -15 -2 -18 9 -9 19 4 14 18 -4 11 -6 11 -12 0z"/>
<path d="M3050 2459 c0 -18 2 -19 15 -9 8 7 15 16 15 21 0 5 -7 9 -15 9 -9 0
-15 -9 -15 -21z"/>
<path d="M3687 2453 c3 -7 9 -13 13 -13 4 0 12 6 18 13 8 9 5 12 -13 12 -14 0
-21 -5 -18 -12z"/>
<path d="M2198 2453 c7 -3 16 -2 19 1 4 3 -2 6 -13 5 -11 0 -14 -3 -6 -6z"/>
<path d="M373 2405 c0 -27 2 -38 4 -22 2 15 2 37 0 50 -2 12 -4 0 -4 -28z"/>
<path d="M2962 2430 c0 -14 2 -19 5 -12 2 6 2 18 0 25 -3 6 -5 1 -5 -13z"/>
<path d="M3507 2443 c-11 -11 -8 -31 6 -36 10 -4 13 2 9 19 -5 26 -6 27 -15
17z"/>
<path d="M398 2418 c-3 -56 -3 -76 3 -118 5 -34 6 -23 7 48 1 50 0 92 -3 92
-3 0 -6 -10 -7 -22z"/>
<path d="M2800 2430 c-12 -8 -9 -10 13 -10 16 0 26 4 22 10 -8 12 -16 12 -35
0z"/>
<path d="M2361 2413 c-2 -44 16 -70 55 -77 22 -5 41 -3 47 3 13 13 17 51 5 51
-4 0 -8 -7 -8 -15 0 -8 -4 -15 -10 -15 -5 0 -10 5 -10 10 0 6 -8 10 -17 8 -11
-2 -19 6 -24 22 -4 14 -7 19 -8 13 -1 -19 -19 -16 -24 5 -4 13 -5 12 -6 -5z"/>
<path d="M3051 2364 c-1 -41 2 -64 8 -60 5 4 12 -2 14 -11 4 -14 5 -13 6 5 0
12 -3 22 -9 22 -5 0 -10 5 -10 11 0 5 4 8 8 5 11 -7 6 74 -5 85 -6 6 -11 -15
-12 -57z"/>
<path d="M3696 2411 c-4 -6 -14 -7 -24 -4 -15 6 -15 5 -3 -11 13 -15 16 -15
30 -2 8 9 12 18 9 21 -3 4 -9 2 -12 -4z"/>
<path d="M265 2400 c-3 -5 -1 -10 4 -10 6 0 11 5 11 10 0 6 -2 10 -4 10 -3 0
-8 -4 -11 -10z"/>
<path d="M3272 2380 c0 -14 2 -19 5 -12 2 6 2 18 0 25 -3 6 -5 1 -5 -13z"/>
<path d="M2879 2373 c-13 -17 -13 -17 6 -3 11 8 22 16 24 17 2 2 0 3 -6 3 -6
0 -17 -8 -24 -17z"/>
<path d="M3295 2380 c3 -5 8 -10 11 -10 2 0 4 5 4 10 0 6 -5 10 -11 10 -5 0
-7 -4 -4 -10z"/>
<path d="M3710 2382 c0 -7 -15 -21 -32 -32 -18 -11 -28 -20 -21 -20 18 0 69
47 61 56 -5 4 -8 2 -8 -4z"/>
<path d="M3805 2350 c3 -5 8 -10 11 -10 2 0 4 5 4 10 0 6 -5 10 -11 10 -5 0
-7 -4 -4 -10z"/>
<path d="M2159 2342 c-30 -2 -38 -8 -41 -27 -3 -13 -1 -26 5 -28 6 -2 12 -14
14 -28 2 -17 0 -20 -6 -10 -10 16 -31 6 -31 -14 0 -8 7 -11 21 -8 14 4 25 0
30 -10 9 -15 44 -17 66 -4 8 5 11 78 4 118 -2 11 -23 14 -62 11z"/>
<path d="M2481 2323 c-7 -8 -11 -16 -8 -19 2 -2 10 2 17 11 17 20 9 27 -9 8z"/>
<path d="M650 2315 c0 -11 -11 -15 -40 -15 -22 0 -40 -3 -40 -8 0 -4 18 -6 40
-4 22 2 40 0 40 -6 0 -12 -24 -22 -51 -22 -10 0 -19 -4 -19 -8 0 -5 19 -7 43
-6 23 2 57 3 76 3 49 1 25 17 -28 20 -27 2 3 19 39 24 l35 4 -37 1 c-26 2 -38
7 -38 17 0 8 -4 15 -10 15 -5 0 -10 -7 -10 -15z"/>
<path d="M2894 2305 c-9 -14 -15 -27 -13 -30 3 -2 12 10 21 26 21 36 15 39 -8
4z"/>
<path d="M3930 2320 c-13 -9 -13 -10 0 -10 8 0 22 5 30 10 13 9 13 10 0 10 -8
0 -22 -5 -30 -10z"/>
<path d="M1823 2303 c4 -6 1 -16 -6 -22 -7 -5 -12 -24 -11 -41 1 -16 -2 -33
-7 -36 -17 -10 -40 17 -34 40 5 19 5 19 -5 3 -16 -25 -8 -61 14 -65 17 -4 34
2 86 28 8 4 17 17 18 30 2 13 0 20 -6 16 -6 -3 -13 2 -15 11 -3 11 -5 7 -6
-10 -1 -18 -5 -26 -12 -21 -6 3 -9 20 -7 36 3 16 0 32 -5 35 -6 3 -7 1 -4 -4z"/>
<path d="M2760 2299 c1 -18 49 -108 50 -92 0 7 -11 33 -25 59 -14 26 -25 41
-25 33z"/>
<path d="M3776 2287 c-21 -15 -12 -47 14 -47 22 0 68 36 58 45 -4 4 -14 0 -23
-9 -19 -19 -49 -21 -42 -3 2 6 10 11 16 10 6 -2 11 2 11 7 0 14 -13 13 -34 -3z"/>
<path d="M3695 2280 c-3 -6 1 -7 9 -4 18 7 21 14 7 14 -6 0 -13 -4 -16 -10z"/>
<path d="M2395 2260 c-20 -23 -14 -50 13 -50 10 0 23 -5 30 -12 9 -9 12 -9 12
1 0 7 7 10 19 6 10 -3 28 -2 40 3 20 7 21 9 7 21 -9 8 -16 10 -16 6 0 -5 -11
4 -24 20 l-24 28 -8 -24 c-4 -13 -7 -28 -5 -33 1 -5 -5 -4 -13 3 -17 14 -17
32 -1 43 6 5 6 8 -1 8 -6 0 -19 -9 -29 -20z"/>
<path d="M2866 2255 c4 -16 10 -37 15 -45 7 -12 8 -11 8 5 0 11 -6 31 -14 45
l-15 25 6 -30z"/>
<path d="M2510 2261 c0 -5 5 -13 10 -16 6 -3 10 -2 10 4 0 5 -4 13 -10 16 -5
3 -10 2 -10 -4z"/>
<path d="M3315 2250 c-3 -5 -1 -10 4 -10 6 0 11 5 11 10 0 6 -2 10 -4 10 -3 0
-8 -4 -11 -10z"/>
<path d="M401 2234 c0 -11 3 -14 6 -6 3 7 2 16 -1 19 -3 4 -6 -2 -5 -13z"/>
<path d="M627 2223 c-10 -9 -9 -23 2 -23 5 0 11 7 15 15 5 15 -5 20 -17 8z"/>
<path d="M735 2220 c-3 -5 1 -10 9 -10 9 0 16 5 16 10 0 6 -4 10 -9 10 -6 0
-13 -4 -16 -10z"/>
<path d="M560 2200 c-17 -13 -20 -20 -10 -20 8 0 21 9 28 20 15 25 13 25 -18
0z"/>
<path d="M410 2190 c20 -13 33 -13 25 0 -3 6 -14 10 -23 10 -15 0 -15 -2 -2
-10z"/>
<path d="M2780 2161 c0 -20 8 -35 22 -45 34 -24 45 -19 13 5 -19 16 -26 28
-22 45 2 13 0 24 -4 24 -5 0 -9 -13 -9 -29z"/>
<path d="M1867 2151 c-4 -17 -3 -21 5 -13 5 5 8 16 6 23 -3 8 -7 3 -11 -10z"/>
<path d="M2374 2155 c-9 -23 3 -45 26 -45 11 0 20 -5 20 -11 0 -11 40 -3 53
12 4 5 4 7 1 4 -4 -3 -12 2 -18 10 -15 20 -58 28 -69 12 -6 -8 -7 -4 -4 11 6
25 -1 30 -9 7z"/>
<path d="M3260 2160 c-9 -6 -10 -10 -3 -10 6 0 15 5 18 10 8 12 4 12 -15 0z"/>
<path d="M1987 2149 c-9 -5 -22 -7 -29 -3 -6 4 -8 3 -4 -4 3 -6 2 -13 -4 -17
-5 -3 -9 -21 -9 -38 2 -31 2 -31 6 -4 6 38 44 61 89 54 30 -5 34 -4 24 8 -14
17 -47 19 -73 4z"/>
<path d="M2948 2153 c12 -2 30 -2 40 0 9 3 -1 5 -23 4 -22 0 -30 -2 -17 -4z"/>
<path d="M3060 2130 c-13 -8 -12 -10 3 -10 9 0 17 5 17 10 0 12 -1 12 -20 0z"/>
<path d="M1896 2105 c-4 -14 -13 -25 -22 -25 -8 0 -13 4 -10 8 2 4 1 14 -4 21
-6 11 -11 9 -20 -8 -6 -13 -18 -20 -25 -17 -9 3 -12 0 -8 -10 5 -15 7 -15 51
-17 43 -1 62 10 62 37 0 34 -16 41 -24 11z"/>
<path d="M1994 2115 c-18 -14 -18 -14 6 -16 14 -1 28 -1 33 0 4 0 7 -5 7 -13
0 -12 20 -26 36 -26 9 0 -2 25 -20 47 -23 27 -35 28 -62 8z"/>
<path d="M1595 2090 c-18 -19 -43 -33 -68 -37 -21 -3 -34 -10 -30 -14 18 -18
85 17 122 64 22 27 7 20 -24 -13z"/>
<path d="M2097 2088 c8 -44 13 -48 13 -10 0 17 -4 34 -10 37 -6 4 -7 -6 -3
-27z"/>
<path d="M2889 2093 c11 -21 49 -63 57 -63 3 0 -10 18 -27 40 -34 43 -46 51
-30 23z"/>
<path d="M3225 2090 c10 -11 20 -20 23 -20 3 0 -3 9 -13 20 -10 11 -20 20 -23
20 -3 0 3 -9 13 -20z"/>
<path d="M1410 2064 c0 -2 9 -8 20 -14 11 -6 20 -7 20 -2 0 6 -9 12 -20 15
-11 3 -20 3 -20 1z"/>
<path d="M649 2039 c-23 -19 -23 -20 -2 -10 12 6 25 16 28 21 10 16 -1 12 -26
-11z"/>
<path d="M2363 2044 c-8 -19 -43 -30 -43 -13 0 5 -7 6 -16 2 -13 -5 -12 -9 7
-29 23 -24 59 -33 59 -13 0 5 5 7 11 3 8 -5 8 -1 0 14 -8 15 -8 22 2 25 9 4 9
7 0 17 -10 11 -14 10 -20 -6z"/>
<path d="M3300 2050 l-35 -7 32 -2 c17 0 35 4 38 9 3 6 5 9 3 9 -2 -1 -19 -5
-38 -9z"/>
<path d="M3050 2035 c-19 -7 -48 -11 -65 -8 -23 4 -27 2 -15 -6 8 -6 27 -11
43 -11 25 0 27 -3 27 -45 0 -37 -3 -45 -19 -45 -10 0 -34 -11 -54 -24 -28 -19
-44 -23 -75 -19 -22 3 -48 1 -58 -5 -16 -9 -15 -11 10 -8 16 2 43 0 60 -4 24
-5 37 -1 60 18 27 22 36 23 90 17 34 -3 70 -6 81 -5 80 5 93 3 124 -19 18 -13
34 -21 37 -18 9 8 -64 48 -99 54 -19 3 -43 1 -53 -5 -12 -7 -25 -6 -42 1 -23
10 -24 15 -20 79 2 37 4 68 3 67 0 0 -16 -6 -35 -14z"/>
<path d="M829 2003 c-13 -16 -12 -17 4 -4 9 7 17 15 17 17 0 8 -8 3 -21 -13z"/>
<path d="M2202 1997 c6 -34 -10 -47 -28 -22 -12 16 -14 17 -20 2 -10 -27 2
-44 35 -50 47 -10 81 10 81 46 l0 29 -20 -23 c-19 -24 -19 -24 -20 -3 0 12 -7
28 -17 35 -15 13 -16 11 -11 -14z"/>
<path d="M2120 1992 c6 -13 14 -21 18 -18 3 4 -2 14 -12 24 -18 16 -18 16 -6
-6z"/>
<path d="M1723 1970 c-24 -14 -33 -27 -33 -47 0 -16 -7 -37 -15 -47 -13 -17
-13 -22 2 -38 18 -20 33 -24 33 -8 0 6 -7 10 -15 10 -22 0 -18 38 4 52 15 9
17 15 9 26 -16 19 22 54 60 56 17 1 28 4 25 9 -8 13 -37 8 -70 -13z"/>
<path d="M2520 1888 c70 -19 87 -20 51 -3 -18 8 -45 15 -60 14 -23 -1 -22 -2
9 -11z"/>
<path d="M2455 1880 c-3 -6 1 -7 9 -4 18 7 21 14 7 14 -6 0 -13 -4 -16 -10z"/>
<path d="M2630 1865 c7 -9 15 -13 17 -11 7 7 -7 26 -19 26 -6 0 -6 -6 2 -15z"/>
<path d="M1378 1863 c17 -7 15 -23 -3 -23 -8 0 -15 -5 -15 -10 0 -7 6 -7 19 0
11 5 28 7 38 4 13 -4 11 0 -7 15 -14 11 -29 20 -35 20 -5 0 -4 -3 3 -6z"/>
<path d="M1780 1860 c0 -5 10 -10 23 -10 17 0 19 -2 8 -9 -11 -7 -9 -10 10
-14 23 -4 23 -4 -3 -6 -14 0 -29 5 -31 12 -3 6 -6 1 -6 -12 -1 -13 2 -21 6
-18 3 4 12 2 18 -3 17 -14 45 -2 45 20 0 9 -8 24 -18 33 -20 19 -52 23 -52 7z"/>
<path d="M2414 1848 l-19 -23 23 19 c21 18 27 26 19 26 -2 0 -12 -10 -23 -22z"/>
<path d="M2770 1845 c-13 -14 -31 -25 -39 -25 -13 -1 -12 -3 3 -12 16 -9 21
-8 24 2 3 8 16 24 30 37 14 13 21 23 15 23 -5 0 -20 -11 -33 -25z"/>
<path d="M1450 1850 c-8 -5 -10 -10 -5 -10 6 0 17 5 25 10 8 5 11 10 5 10 -5
0 -17 -5 -25 -10z"/>
<path d="M1578 1853 c7 -3 16 -2 19 1 4 3 -2 6 -13 5 -11 0 -14 -3 -6 -6z"/>
<path d="M2676 1847 c4 -11 -2 -14 -23 -11 -16 2 -20 1 -8 -2 11 -4 26 -11 33
-16 9 -8 12 -5 12 10 0 12 -4 24 -10 27 -5 3 -7 0 -4 -8z"/>
<path d="M3040 1850 c0 -5 -7 -10 -17 -10 -9 0 -14 -3 -10 -6 3 -3 20 -3 38 1
23 5 28 10 18 16 -19 12 -29 11 -29 -1z"/>
<path d="M1910 1827 c-18 -11 -30 -26 -28 -36 3 -15 13 -17 61 -13 25 3 11 22
-16 22 -21 0 -21 0 -1 14 11 8 31 16 44 18 l25 4 -27 5 c-17 4 -37 -1 -58 -14z"/>
<path d="M3120 1838 c0 -10 9 -9 35 2 17 8 16 8 -7 7 -16 -1 -28 -5 -28 -9z"/>
<path d="M2353 1825 c0 -8 5 -11 10 -8 6 4 8 0 4 -11 -6 -14 -4 -15 16 -5 17
10 18 13 7 17 -8 3 -20 9 -26 13 -7 5 -11 3 -11 -6z"/>
<path d="M810 1779 c0 -30 -3 -79 -6 -109 -5 -39 -3 -52 4 -45 12 11 19 191 8
202 -3 3 -6 -18 -6 -48z"/>
<path d="M1041 1820 c-1 -8 8 -44 19 -80 17 -56 19 -59 14 -20 -7 48 -32 125
-33 100z"/>
<path d="M2523 1815 c-18 -8 -33 -16 -33 -19 0 -3 16 2 36 10 33 14 38 14 55
-2 23 -21 26 -12 3 10 -19 19 -20 19 -61 1z"/>
<path d="M2615 1810 c10 -11 20 -20 23 -20 3 0 -3 9 -13 20 -10 11 -20 20 -23
20 -3 0 3 -9 13 -20z"/>
<path d="M2973 1818 c-15 -20 -25 -38 -20 -38 3 0 12 11 21 25 17 26 16 35 -1
13z"/>
<path d="M3020 1811 c-11 -8 -4 -11 30 -13 59 -2 68 -1 110 11 l35 10 -35 -4
c-49 -7 -51 -7 -90 0 -19 3 -42 1 -50 -4z"/>
<path d="M762 1790 c0 -14 2 -19 5 -12 2 6 2 18 0 25 -3 6 -5 1 -5 -13z"/>
<path d="M2389 1753 c-13 -16 -12 -17 4 -4 9 7 17 15 17 17 0 8 -8 3 -21 -13z"/>
<path d="M2515 1760 c-3 -6 1 -7 9 -4 18 7 21 14 7 14 -6 0 -13 -4 -16 -10z"/>
<path d="M2950 1766 c0 -2 8 -10 18 -17 15 -13 16 -12 3 4 -13 16 -21 21 -21
13z"/>
<path d="M2997 1756 c-3 -8 2 -16 14 -19 17 -5 18 -3 7 11 -7 9 -13 18 -14 20
-1 2 -4 -4 -7 -12z"/>
<path d="M1532 1748 c-7 -7 -12 -19 -11 -27 0 -14 1 -14 6 -1 4 8 13 20 22 27
9 7 11 13 6 13 -6 0 -16 -5 -23 -12z"/>
<path d="M2555 1750 c3 -5 8 -10 11 -10 2 0 4 5 4 10 0 6 -5 10 -11 10 -5 0
-7 -4 -4 -10z"/>
<path d="M736 1690 c-10 -34 -16 -63 -13 -66 5 -6 22 41 32 94 11 52 0 37 -19
-28z"/>
<path d="M3263 1740 c-13 -5 -23 -14 -23 -20 0 -15 8 -12 32 10 24 22 23 23
-9 10z"/>
<path d="M1294 1726 c-3 -9 -10 -16 -16 -16 -5 0 -6 5 -2 12 4 7 3 8 -4 4 -7
-4 -12 -14 -12 -22 0 -8 5 -12 10 -9 6 3 10 -4 10 -15 0 -16 -5 -20 -15 -16
-8 3 -15 1 -15 -3 0 -5 7 -11 15 -15 8 -3 15 0 15 6 0 6 8 4 18 -5 10 -10 27
-17 38 -17 16 0 16 2 -5 13 -37 19 -48 43 -33 68 7 11 11 23 8 26 -3 3 -8 -2
-12 -11z"/>
<path d="M1590 1726 c-14 -8 -29 -12 -34 -9 -5 4 -6 1 -2 -5 5 -9 16 -8 39 4
37 19 44 24 31 24 -5 -1 -20 -7 -34 -14z"/>
<path d="M2632 1730 c3 -9 18 -16 36 -17 19 -1 30 3 26 9 -3 5 -13 7 -21 4 -9
-4 -22 -1 -31 6 -13 11 -14 10 -10 -2z"/>
<path d="M1339 1713 c-13 -16 -12 -17 3 -5 9 8 22 11 27 8 5 -4 12 -2 16 4 11
18 -32 11 -46 -7z"/>
<path d="M1455 1720 c-3 -6 1 -7 9 -4 18 7 21 14 7 14 -6 0 -13 -4 -16 -10z"/>
<path d="M2370 1710 c0 -11 4 -20 9 -20 5 0 7 9 4 20 -3 11 -7 20 -9 20 -2 0
-4 -9 -4 -20z"/>
<path d="M60 1711 c0 -5 5 -13 10 -16 6 -3 10 -2 10 4 0 5 -4 13 -10 16 -5 3
-10 2 -10 -4z"/>
<path d="M1830 1700 c8 -16 8 -18 -4 -14 -8 3 -23 1 -35 -5 -17 -9 -20 -8 -24
12 -4 20 -4 20 -6 -4 0 -14 6 -34 14 -45 14 -19 14 -18 9 2 -4 15 0 23 14 26
15 4 22 0 26 -16 8 -29 7 -38 -2 -32 -4 2 -14 1 -21 -3 -10 -6 -10 -17 -3 -45
6 -20 6 -36 2 -36 -8 0 14 -92 27 -112 2 -4 19 6 38 24 24 21 32 35 26 42 -6
7 -6 17 -1 26 6 8 10 26 10 40 0 20 2 22 10 10 5 -8 10 -10 10 -4 0 6 -13 21
-30 34 -35 27 -38 48 -10 58 21 8 21 8 -2 28 -13 12 -31 24 -41 27 -15 6 -16
4 -7 -13z"/>
<path d="M105 1700 c3 -5 11 -10 16 -10 6 0 7 5 4 10 -3 6 -11 10 -16 10 -6 0
-7 -4 -4 -10z"/>
<path d="M1495 1700 c-3 -5 -1 -10 4 -10 6 0 11 5 11 10 0 6 -2 10 -4 10 -3 0
-8 -4 -11 -10z"/>
<path d="M2445 1700 c3 -5 8 -10 11 -10 2 0 4 5 4 10 0 6 -5 10 -11 10 -5 0
-7 -4 -4 -10z"/>
<path d="M2490 1700 c0 -6 7 -10 15 -10 8 0 15 2 15 4 0 2 -7 6 -15 10 -8 3
-15 1 -15 -4z"/>
<path d="M1506 1675 c-20 -14 -47 -26 -59 -26 -17 -1 -18 -2 -4 -6 20 -5 22
-14 5 -33 -7 -8 12 8 42 35 30 27 57 50 59 52 2 2 2 3 -1 3 -3 0 -22 -11 -42
-25z"/>
<path d="M872 1640 c0 -19 2 -27 5 -17 2 9 2 25 0 35 -3 9 -5 1 -5 -18z"/>
<path d="M2600 1661 c0 -6 4 -13 10 -16 6 -3 7 1 4 9 -7 18 -14 21 -14 7z"/>
<path d="M3935 1660 c-13 -6 -15 -9 -5 -9 8 0 22 4 30 9 18 12 2 12 -25 0z"/>
<path d="M2394 1649 c13 -8 15 -13 6 -19 -8 -5 6 -14 36 -26 96 -37 154 -117
125 -173 -12 -21 -112 -90 -134 -92 -6 0 2 -5 18 -10 17 -5 39 -6 50 -2 19 6
18 7 -5 13 l-25 7 35 19 c107 59 117 128 31 203 -12 11 -20 24 -17 30 4 6 -3
10 -16 9 -47 -2 -69 2 -63 12 9 14 -19 40 -42 40 -17 -1 -17 -1 1 -11z"/>
<path d="M2739 1643 c-13 -16 -12 -17 4 -4 16 13 21 21 13 21 -2 0 -10 -8 -17
-17z"/>
<path d="M630 1632 c0 -6 10 -13 23 -16 l22 -6 -25 -15 c-14 -8 -41 -14 -60
-14 -32 1 -33 2 -10 9 19 6 12 9 -35 11 -33 1 -75 2 -94 0 -19 -1 -47 3 -62
10 -21 8 -33 8 -42 0 -8 -6 -17 -7 -22 -3 -4 4 -6 0 -3 -8 6 -20 96 -40 183
-42 102 -1 186 26 169 54 -9 13 -44 29 -44 20z m-177 -49 c-7 -2 -21 -2 -30 0
-10 3 -4 5 12 5 17 0 24 -2 18 -5z"/>
<path d="M1410 1631 c0 -5 5 -13 10 -16 6 -3 10 -2 10 4 0 5 -4 13 -10 16 -5
3 -10 2 -10 -4z"/>
<path d="M1365 1620 c3 -5 8 -10 11 -10 2 0 4 5 4 10 0 6 -5 10 -11 10 -5 0
-7 -4 -4 -10z"/>
<path d="M2371 1620 c0 -8 6 -28 14 -45 7 -16 14 -23 14 -15 0 8 -6 29 -14 45
-7 17 -14 23 -14 15z"/>
<path d="M2465 1620 c3 -5 8 -10 11 -10 2 0 4 5 4 10 0 6 -5 10 -11 10 -5 0
-7 -4 -4 -10z"/>
<path d="M2665 1620 c-4 -6 3 -10 14 -10 25 0 27 6 6 13 -8 4 -17 2 -20 -3z"/>
<path d="M2601 1600 c-13 -11 -32 -20 -43 -20 -10 0 -17 -4 -13 -10 8 -12 48
3 75 30 26 26 13 26 -19 0z"/>
<path d="M705 1601 c-3 -6 -4 -11 -1 -11 3 0 -1 -19 -9 -41 -18 -49 -18 -49
-6 -49 10 0 36 98 28 106 -3 3 -8 1 -12 -5z"/>
<path d="M1310 1600 c0 -5 5 -10 11 -10 5 0 7 5 4 10 -3 6 -8 10 -11 10 -2 0
-4 -4 -4 -10z"/>
<path d="M1230 1590 c0 -5 10 -10 23 -10 18 0 19 2 7 10 -19 13 -30 13 -30 0z"/>
<path d="M1413 1584 c3 -4 -5 -26 -19 -50 -36 -61 -23 -55 15 6 25 41 28 50
14 50 -9 0 -13 -3 -10 -6z"/>
<path d="M1340 1565 c-15 -18 -71 -20 -90 -2 -12 10 -12 9 -1 -5 16 -22 68
-23 95 -3 11 8 17 17 14 20 -3 3 -11 -1 -18 -10z"/>
<path d="M797 1541 c-4 -17 -3 -21 5 -13 5 5 8 16 6 23 -3 8 -7 3 -11 -10z"/>
<path d="M2302 1500 c-1 -36 -6 -80 -11 -98 -6 -18 -6 -30 -1 -27 14 9 22 64
17 130 l-3 60 -2 -65z"/>
<path d="M175 1530 c3 -5 8 -10 11 -10 2 0 4 5 4 10 0 6 -5 10 -11 10 -5 0 -7
-4 -4 -10z"/>
<path d="M3409 1514 c-5 -15 -8 -29 -5 -31 2 -2 8 10 14 26 13 38 5 41 -9 5z"/>
<path d="M1635 1498 c-7 -45 -2 -178 8 -178 4 0 6 47 5 105 -2 58 -4 105 -5
105 -1 0 -5 -15 -8 -32z"/>
<path d="M3510 1500 c-1 -19 -2 -38 -2 -41 1 -4 -10 -17 -23 -29 -22 -20 -38
-16 -18 4 4 4 8 26 9 49 1 23 -1 32 -3 20 -2 -13 -7 -23 -11 -23 -4 0 -7 -23
-8 -50 -1 -40 2 -48 12 -39 38 31 46 -36 9 -71 -26 -24 -33 -50 -14 -50 5 0 7
5 4 10 -4 6 5 23 19 37 27 27 34 71 15 90 -8 8 -5 17 10 32 26 26 31 26 31 2
0 -11 5 -23 10 -26 23 -14 9 -64 -30 -110 -27 -31 -40 -55 -39 -73 1 -25 2
-25 9 6 8 35 20 54 20 32 0 -7 8 -2 19 11 10 13 18 26 17 29 0 3 7 16 17 30
21 30 22 48 2 70 -9 10 -17 31 -18 49 -2 30 -16 44 -18 19 -1 -7 -5 3 -9 22
l-7 35 -3 -35z m40 -183 c0 -2 -10 -12 -22 -23 l-23 -19 19 23 c18 21 26 27
26 19z"/>
<path d="M1121 1483 c-7 -20 -23 -45 -35 -57 -12 -12 -15 -15 -6 -8 9 6 27 12
40 12 23 0 23 -1 -11 -36 -19 -19 -26 -32 -16 -29 9 4 17 11 17 16 0 14 62 49
86 49 11 0 29 9 39 20 24 27 90 27 130 0 35 -23 73 -26 100 -6 16 12 13 13
-31 9 -38 -4 -53 -1 -63 11 -19 22 -108 22 -133 -1 -19 -17 -59 -24 -91 -16
-14 4 -16 11 -11 39 8 44 1 43 -15 -3z"/>
<path d="M1770 1506 c0 -10 49 -109 49 -100 1 14 -38 104 -44 104 -3 0 -5 -2
-5 -4z"/>
<path d="M2041 1494 c0 -11 3 -14 6 -6 3 7 2 16 -1 19 -3 4 -6 -2 -5 -13z"/>
<path d="M1509 1483 c-13 -16 -12 -17 4 -4 9 7 17 15 17 17 0 8 -8 3 -21 -13z"/>
<path d="M2252 1480 c0 -14 2 -19 5 -12 2 6 2 18 0 25 -3 6 -5 1 -5 -13z"/>
<path d="M3161 1484 c0 -11 3 -14 6 -6 3 7 2 16 -1 19 -3 4 -6 -2 -5 -13z"/>
<path d="M671 1464 c-6 -15 -9 -29 -7 -32 3 -2 10 8 16 23 14 36 7 43 -9 9z"/>
<path d="M1000 1460 c0 -16 4 -30 8 -30 5 0 7 14 4 30 -2 17 -6 30 -8 30 -2 0
-4 -13 -4 -30z"/>
<path d="M795 1447 c-4 -10 -5 -21 -1 -24 10 -10 18 4 13 24 -4 17 -4 17 -12
0z"/>
<path d="M3151 1444 c0 -11 3 -14 6 -6 3 7 2 16 -1 19 -3 4 -6 -2 -5 -13z"/>
<path d="M1505 1370 c-80 -160 -107 -306 -75 -406 19 -58 68 -162 81 -170 17
-10 48 27 54 66 l6 35 -16 -34 c-29 -64 -35 -66 -62 -15 -59 112 -83 261 -45
291 9 8 11 11 3 7 -11 -6 -13 1 -7 37 4 24 12 49 18 54 7 7 8 2 4 -15 -6 -21
-5 -22 4 -7 6 9 8 27 5 38 -5 15 -4 19 4 15 6 -4 11 0 11 11 0 22 25 94 46
134 8 16 12 29 9 29 -2 0 -21 -31 -40 -70z"/>
<path d="M1891 1413 c-13 -13 -20 -23 -14 -23 11 0 49 38 42 43 -2 2 -15 -7
-28 -20z"/>
<path d="M1977 1433 c-4 -3 -7 -15 -7 -25 0 -15 -3 -17 -19 -8 -11 5 -22 10
-25 10 -10 0 -6 -39 4 -45 6 -3 10 -2 10 3 0 17 40 6 65 -18 14 -13 25 -20 25
-16 0 4 -10 16 -22 26 -13 10 -20 21 -16 25 10 10 86 -63 91 -88 4 -21 4 -20
6 2 1 17 -13 38 -46 70 -27 25 -48 49 -48 52 0 12 -11 19 -18 12z"/>
<path d="M2251 1424 c0 -11 3 -14 6 -6 3 7 2 16 -1 19 -3 4 -6 -2 -5 -13z"/>
<path d="M3136 1402 c-2 -4 -1 -14 5 -22 7 -12 9 -10 9 8 0 23 -5 28 -14 14z"/>
<path d="M627 1353 l-18 -38 20 25 c18 22 28 50 18 50 -2 0 -11 -17 -20 -37z"/>
<path d="M1800 1376 c-60 -14 -111 -38 -130 -61 -7 -8 -16 -12 -21 -9 -5 3 -9
-5 -9 -17 l0 -23 28 26 c42 40 91 60 158 66 59 4 62 3 101 -31 30 -28 42 -34
51 -25 9 9 12 9 12 -1 0 -7 5 -9 11 -5 8 5 6 10 -5 16 -9 5 -20 7 -24 4 -5 -3
-8 4 -8 16 1 12 -6 23 -14 26 -13 5 -13 3 0 -14 13 -17 12 -17 -10 2 -21 17
-76 46 -83 43 -1 0 -27 -6 -57 -13z"/>
<path d="M1325 1301 c-3 -6 4 -37 15 -70 11 -33 21 -75 21 -93 1 -18 5 -46 10
-63 5 -19 6 -5 2 40 -3 39 -7 86 -8 105 -4 69 -23 108 -40 81z m33 -56 c-3 -3
-9 2 -12 12 -6 14 -5 15 5 6 7 -7 10 -15 7 -18z"/>
<path d="M2299 1297 c6 -6 27 -12 46 -12 43 0 32 11 -19 18 -31 5 -37 4 -27
-6z"/>
<path d="M2436 1264 c19 -15 19 -16 -1 -9 -42 15 -58 14 -26 -1 19 -8 50 -27
70 -41 l36 -26 -34 33 c-27 25 -29 31 -12 25 31 -9 26 2 -9 20 -38 19 -49 19
-24 -1z"/>
<path d="M3559 1263 c-13 -16 -12 -17 4 -4 16 13 21 21 13 21 -2 0 -10 -8 -17
-17z"/>
<path d="M2345 1243 c15 -32 25 -42 25 -24 0 5 -9 19 -20 32 l-21 24 16 -32z"/>
<path d="M1937 1243 c-4 -3 -7 -11 -7 -17 0 -6 5 -5 12 2 6 6 9 14 7 17 -3 3
-9 2 -12 -2z"/>
<path d="M3501 1234 c0 -11 3 -14 6 -6 3 7 2 16 -1 19 -3 4 -6 -2 -5 -13z"/>
<path d="M1130 1198 c-17 -22 -30 -53 -29 -67 1 -23 2 -23 9 6 4 18 19 49 34
68 15 19 25 35 22 35 -3 0 -19 -19 -36 -42z"/>
<path d="M1973 1224 c-9 -24 3 -198 15 -220 10 -15 10 -13 4 16 -4 19 -7 77
-7 128 0 50 -1 92 -3 92 -1 0 -5 -7 -9 -16z"/>
<path d="M2071 1214 c0 -11 3 -14 6 -6 3 7 2 16 -1 19 -3 4 -6 -2 -5 -13z"/>
<path d="M2025 1210 c3 -5 8 -10 11 -10 2 0 4 5 4 10 0 6 -5 10 -11 10 -5 0
-7 -4 -4 -10z"/>
<path d="M3521 1204 c0 -11 3 -14 6 -6 3 7 2 16 -1 19 -3 4 -6 -2 -5 -13z"/>
<path d="M1920 1190 c0 -11 2 -20 4 -20 2 0 6 9 9 20 3 11 1 20 -4 20 -5 0 -9
-9 -9 -20z"/>
<path d="M2384 1153 c3 -21 6 -57 6 -80 0 -25 5 -43 11 -43 12 0 8 56 -7 116
-10 40 14 21 37 -30 23 -50 24 -90 4 -147 -21 -60 -28 -106 -18 -124 6 -10 9
-4 10 23 1 20 9 57 17 81 29 80 17 162 -33 219 -27 31 -35 28 -27 -15z"/>
<path d="M3157 1183 c-4 -3 -7 -16 -6 -27 0 -12 3 -15 6 -8 2 6 8 10 13 7 4
-3 6 4 3 15 -6 22 -7 23 -16 13z"/>
<path d="M3646 1171 c-3 -5 16 -6 42 -4 69 7 74 11 15 12 -28 1 -54 -3 -57 -8z"/>
<path d="M2061 1154 c0 -11 3 -14 6 -6 3 7 2 16 -1 19 -3 4 -6 -2 -5 -13z"/>
<path d="M3765 1140 c0 -26 2 -27 15 -15 13 13 13 17 0 30 -13 13 -15 11 -15
-15z"/>
<path d="M3687 1129 c7 -7 15 -10 18 -7 3 3 -2 9 -12 12 -14 6 -15 5 -6 -5z"/>
<path d="M1991 1104 c0 -11 3 -14 6 -6 3 7 2 16 -1 19 -3 4 -6 -2 -5 -13z"/>
<path d="M3197 1100 c-9 -11 -17 -26 -17 -33 0 -9 2 -9 8 -1 4 7 14 13 23 15
11 3 14 10 10 22 -6 16 -8 16 -24 -3z"/>
<path d="M3436 1101 c-4 -7 -5 -15 -2 -18 9 -9 19 4 14 18 -4 11 -6 11 -12 0z"/>
<path d="M3028 1089 c-18 -10 -25 -39 -9 -39 5 0 14 7 21 15 7 8 26 15 42 15
17 0 27 4 23 10 -8 13 -55 12 -77 -1z"/>
<path d="M2001 1064 c0 -11 3 -14 6 -6 3 7 2 16 -1 19 -3 4 -6 -2 -5 -13z"/>
<path d="M3098 1049 c-10 -5 -18 -15 -18 -22 0 -9 3 -8 9 1 4 7 12 12 17 11
21 -4 35 2 29 11 -8 12 -15 12 -37 -1z"/>
<path d="M2011 1030 c0 -8 4 -22 9 -30 12 -18 12 -2 0 25 -6 13 -9 15 -9 5z"/>
<path d="M3215 1015 c0 -13 3 -21 8 -18 4 2 7 10 7 18 0 8 -3 16 -7 18 -5 3
-8 -5 -8 -18z"/>
<path d="M1360 1009 c0 -5 5 -7 10 -4 6 3 10 8 10 11 0 2 -4 4 -10 4 -5 0 -10
-5 -10 -11z"/>
<path d="M2377 947 c-9 -39 -17 -92 -16 -117 1 -25 3 -34 5 -20 2 14 11 62 20
107 21 104 15 126 -9 30z"/>
<path d="M2900 1010 c0 -5 7 -7 15 -4 8 4 15 8 15 10 0 2 -7 4 -15 4 -8 0 -15
-4 -15 -10z"/>
<path d="M1785 980 c3 -5 13 -10 21 -10 8 0 14 5 14 10 0 6 -9 10 -21 10 -11
0 -17 -4 -14 -10z"/>
<path d="M2061 974 c0 -11 3 -14 6 -6 3 7 2 16 -1 19 -3 4 -6 -2 -5 -13z"/>
<path d="M3215 952 c-5 -4 -16 -14 -22 -23 -11 -13 -10 -16 5 -16 22 0 42 15
42 33 0 15 -10 18 -25 6z"/>
<path d="M1758 943 c7 -3 16 -2 19 1 4 3 -2 6 -13 5 -11 0 -14 -3 -6 -6z"/>
<path d="M2010 945 c0 -5 5 -17 10 -25 5 -8 10 -10 10 -5 0 6 -5 17 -10 25 -5
8 -10 11 -10 5z"/>
<path d="M2060 936 c0 -18 26 -86 33 -86 6 0 -18 88 -26 96 -4 4 -7 0 -7 -10z"/>
<path d="M1740 916 c0 -10 28 -13 41 -5 10 6 7 9 -13 9 -16 0 -28 -2 -28 -4z"/>
<path d="M460 900 c0 -5 7 -7 15 -4 8 4 15 8 15 10 0 2 -7 4 -15 4 -8 0 -15
-4 -15 -10z"/>
<path d="M3020 906 c0 -2 8 -10 18 -17 15 -13 16 -12 3 4 -13 16 -21 21 -21
13z"/>
<path d="M3256 863 c-6 -14 -5 -15 5 -6 7 7 10 15 7 18 -3 3 -9 -2 -12 -12z"/>
<path d="M413 831 c-10 -15 -9 -20 2 -25 13 -4 35 20 35 38 0 14 -26 4 -37
-13z"/>
<path d="M2539 823 c-5 -14 -9 -33 -7 -41 2 -9 8 3 14 26 13 47 9 56 -7 15z"/>
<path d="M3186 838 c3 -4 11 -5 19 -1 21 7 19 12 -4 10 -11 0 -18 -5 -15 -9z"/>
<path d="M1872 810 c0 -19 2 -27 5 -17 2 9 2 25 0 35 -3 9 -5 1 -5 -18z"/>
<path d="M2426 805 c4 -8 8 -15 10 -15 2 0 4 7 4 15 0 8 -4 15 -10 15 -5 0 -7
-7 -4 -15z"/>
<path d="M1926 773 c6 -36 18 -52 37 -53 5 0 7 3 5 8 -2 4 -12 24 -21 45 -10
20 -20 37 -23 37 -3 0 -2 -17 2 -37z"/>
<path d="M3265 780 c-10 -11 -49 -41 -87 -66 -37 -24 -68 -46 -68 -49 0 -2 31
14 68 35 67 39 120 85 110 95 -2 3 -13 -4 -23 -15z"/>
<path d="M892 751 c0 -17 4 -31 9 -31 11 0 12 30 0 48 -5 9 -8 3 -9 -17z"/>
<path d="M2371 764 c0 -11 3 -14 6 -6 3 7 2 16 -1 19 -3 4 -6 -2 -5 -13z"/>
<path d="M2445 760 c3 -5 8 -10 11 -10 2 0 4 5 4 10 0 6 -5 10 -11 10 -5 0 -7
-4 -4 -10z"/>
<path d="M3144 754 c-18 -14 -18 -14 6 -3 31 14 36 19 24 19 -6 0 -19 -7 -30
-16z"/>
<path d="M3912 740 c0 -14 2 -19 5 -12 2 6 2 18 0 25 -3 6 -5 1 -5 -13z"/>
<path d="M2841 746 c8 -8 78 -10 85 -3 4 4 -14 7 -41 7 -27 0 -46 -2 -44 -4z"/>
<path d="M1380 725 c0 -12 63 -66 69 -60 2 3 2 6 0 8 -2 1 -19 15 -37 31 -17
17 -32 26 -32 21z"/>
<path d="M2040 716 c0 -14 35 -48 67 -65 27 -14 33 -14 33 -1 0 6 -7 10 -16
10 -9 0 -31 15 -50 34 -19 19 -34 28 -34 22z"/>
<path d="M2381 714 c0 -11 3 -14 6 -6 3 7 2 16 -1 19 -3 4 -6 -2 -5 -13z"/>
<path d="M3069 693 l-34 -38 38 34 c34 33 42 41 34 41 -2 0 -19 -17 -38 -37z"/>
<path d="M390 690 c0 -16 5 -30 10 -30 6 0 10 7 10 16 0 8 4 13 9 9 5 -3 13 0
17 6 4 8 3 9 -5 5 -6 -4 -14 0 -17 8 -10 26 -24 18 -24 -14z"/>
<path d="M867 690 c-16 -16 -16 -18 -2 -24 9 -3 13 -11 9 -17 -4 -7 -3 -9 3
-6 12 8 23 56 14 61 -3 2 -14 -4 -24 -14z"/>
<path d="M2471 694 c0 -11 3 -14 6 -6 3 7 2 16 -1 19 -3 4 -6 -2 -5 -13z"/>
<path d="M2939 663 c-13 -16 -12 -17 4 -4 16 13 21 21 13 21 -2 0 -10 -8 -17
-17z"/>
<path d="M1220 641 c0 -5 7 -12 16 -15 14 -5 15 -4 4 9 -14 17 -20 19 -20 6z"/>
<path d="M2070 641 c0 -11 40 -41 54 -41 5 0 -1 11 -14 25 -24 26 -40 32 -40
16z"/>
<path d="M3049 623 l-24 -26 33 23 c33 25 38 30 24 30 -5 0 -19 -12 -33 -27z"/>
<path d="M2975 598 l-40 -43 43 40 c23 21 42 40 42 42 0 8 -9 0 -45 -39z"/>
<path d="M3909 613 c-18 -20 -19 -23 -4 -13 32 24 47 40 37 40 -4 0 -19 -12
-33 -27z"/>
<path d="M744 593 c11 -13 26 -23 35 -22 14 0 14 1 1 6 -8 3 -24 13 -35 22
-20 16 -20 16 -1 -6z"/>
<path d="M2912 590 c0 -14 2 -19 5 -12 2 6 2 18 0 25 -3 6 -5 1 -5 -13z"/>
<path d="M1246 582 c-3 -6 -1 -14 5 -17 14 -9 20 -2 10 14 -6 8 -11 9 -15 3z"/>
<path d="M1300 580 c-13 -8 -13 -11 -1 -22 10 -10 12 -10 7 0 -4 6 -3 12 3 12
5 0 12 -6 14 -12 3 -8 6 -7 6 4 1 22 -11 29 -29 18z"/>
<path d="M2984 568 l-19 -23 23 19 c12 11 22 21 22 23 0 8 -8 2 -26 -19z"/>
<path d="M3860 580 c0 -5 5 -10 10 -10 6 0 10 5 10 10 0 6 -4 10 -10 10 -5 0
-10 -4 -10 -10z"/>
<path d="M1750 576 c0 -8 61 -12 66 -4 3 4 -11 8 -30 8 -20 0 -36 -2 -36 -4z"/>
<path d="M420 565 c0 -2 10 -10 23 -16 20 -11 21 -11 8 4 -13 16 -31 23 -31
12z"/>
<path d="M1592 495 c0 -16 2 -22 5 -12 2 9 2 23 0 30 -3 6 -5 -1 -5 -18z"/>
<path d="M2070 513 c0 -5 7 -17 15 -27 21 -27 20 -57 -1 -49 -12 4 -15 2 -12
-8 3 -8 11 -13 18 -11 9 2 11 -11 6 -52 -8 -77 25 -171 40 -112 4 18 1 32 -10
45 -20 22 -21 45 -1 37 8 -3 15 -1 15 4 0 6 -4 10 -10 10 -5 0 -10 16 -10 35
0 19 5 35 11 35 7 0 9 -10 5 -25 -4 -14 -2 -25 3 -25 5 0 12 -9 16 -20 6 -19
7 -19 27 0 29 27 18 70 -18 70 -24 0 -25 2 -13 17 13 15 12 15 -8 5 -20 -11
-24 -9 -42 33 -18 41 -32 57 -31 38z m113 -139 c-8 -22 -18 -16 -21 12 -2 22
0 24 12 14 8 -6 12 -18 9 -26z"/>
<path d="M1795 480 c-3 -5 -2 -10 4 -10 5 0 13 5 16 10 3 6 2 10 -4 10 -5 0
-13 -4 -16 -10z"/>
<path d="M1941 477 c2 -1 13 -9 24 -17 19 -14 19 -14 6 3 -7 9 -18 17 -24 17
-6 0 -8 -1 -6 -3z"/>
<path d="M3200 460 c-14 -11 -20 -20 -14 -20 6 0 19 9 29 20 23 25 17 25 -15
0z"/>
<path d="M1471 426 c-8 -10 -9 -16 -1 -21 5 -3 10 -1 10 5 0 6 5 8 10 5 6 -4
8 -11 5 -16 -4 -5 -2 -9 4 -9 5 0 13 5 16 10 3 6 1 10 -4 10 -6 0 -11 7 -11
15 0 19 -14 19 -29 1z"/>
<path d="M2395 423 c22 -15 32 -16 39 -4 3 5 -8 11 -26 13 -28 5 -29 4 -13 -9z"/>
<path d="M1144 405 c-4 -10 1 -23 11 -33 17 -16 17 -16 11 1 -9 27 3 40 22 25
13 -11 14 -11 10 2 -7 21 -47 25 -54 5z"/>
<path d="M1252 393 c2 -20 9 -29 26 -31 14 -2 22 2 22 11 0 8 -8 14 -17 13
-11 0 -17 6 -17 17 1 9 -3 17 -8 17 -5 0 -8 -12 -6 -27z"/>
<path d="M1532 395 c0 -16 2 -22 5 -12 2 9 2 23 0 30 -3 6 -5 -1 -5 -18z"/>
<path d="M2520 417 c0 -3 12 -12 26 -22 15 -9 23 -12 20 -6 -7 11 -46 35 -46
28z"/>
<path d="M2260 403 c0 -6 9 -21 21 -34 l20 -24 -17 30 c-24 39 -24 40 -24 28z"/>
<path d="M2317 403 c-4 -3 -7 -11 -7 -17 0 -6 4 -5 9 3 11 17 41 7 41 -13 0
-8 -12 -19 -27 -24 -23 -9 -25 -11 -7 -11 11 -1 29 8 39 19 15 16 15 22 5 35
-13 15 -42 20 -53 8z"/>
<path d="M1328 382 c9 -10 19 -17 21 -16 6 5 -20 34 -30 34 -5 0 -1 -8 9 -18z"/>
<path d="M2399 383 c-13 -17 -13 -17 6 -3 11 8 22 16 24 17 2 2 0 3 -6 3 -6 0
-17 -8 -24 -17z"/>
<path d="M1243 349 c15 -11 27 -30 28 -42 0 -21 1 -21 9 -2 6 15 2 25 -16 43
-14 12 -30 22 -37 22 -7 0 0 -10 16 -21z"/>
<path d="M3336 353 c-6 -14 -5 -15 5 -6 7 7 10 15 7 18 -3 3 -9 -2 -12 -12z"/>
<path d="M1156 335 c-11 -8 -15 -15 -9 -15 6 0 16 7 23 15 16 19 11 19 -14 0z"/>
<path d="M1578 320 c-3 -16 -1 -30 4 -30 4 0 8 14 8 30 0 17 -2 30 -4 30 -2 0
-6 -13 -8 -30z"/>
<path d="M2180 326 c-7 -9 -15 -14 -19 -12 -4 3 -7 -11 -7 -30 0 -45 10 -43
25 6 9 29 17 40 31 40 13 0 20 -7 20 -20 0 -11 -4 -20 -10 -20 -5 0 -7 7 -3
16 4 12 2 15 -8 12 -24 -8 -17 -43 9 -46 21 -3 23 0 20 30 -2 25 -8 34 -24 36
-11 2 -26 -4 -34 -12z"/>
<path d="M2905 313 l-17 -28 23 22 c12 12 20 25 17 28 -3 3 -13 -7 -23 -22z"/>
<path d="M1300 307 c0 -14 5 -29 10 -32 7 -4 8 3 4 22 -9 38 -14 42 -14 10z"/>
<path d="M1347 313 c-13 -15 -13 -20 -1 -30 27 -26 65 -7 63 32 0 16 -2 15
-11 -7 -10 -28 -31 -37 -43 -18 -4 6 -1 17 5 25 18 21 6 19 -13 -2z"/>
<path d="M2370 319 c0 -5 5 -7 10 -4 6 3 10 8 10 11 0 2 -4 4 -10 4 -5 0 -10
-5 -10 -11z"/>
<path d="M3289 302 c-20 -15 -46 -34 -58 -42 -11 -8 -21 -18 -21 -23 0 -14
-70 -78 -79 -72 -5 3 -11 -2 -15 -10 -3 -8 -10 -15 -16 -15 -6 0 -8 6 -5 13 4
6 0 4 -8 -5 -8 -10 -17 -15 -20 -12 -4 4 -23 -1 -43 -11 -20 -9 -42 -18 -49
-19 -20 -3 -119 -95 -111 -103 4 -4 12 0 17 10 11 18 119 77 143 77 7 0 50 18
94 40 79 40 153 104 194 169 24 37 23 37 -23 3z"/>
<path d="M2267 302 c-21 -23 -21 -36 0 -53 15 -12 16 -12 10 4 -10 26 3 47 29
47 27 0 33 -20 7 -21 -12 0 -13 -2 -5 -6 21 -8 44 17 31 33 -16 20 -53 17 -72
-4z"/>
<path d="M2915 294 c-9 -14 -14 -28 -11 -31 7 -7 46 35 46 49 0 16 -18 7 -35
-18z"/>
<path d="M2580 298 c0 -6 -10 -23 -22 -37 l-23 -26 29 25 c19 16 27 19 24 9
-3 -8 3 -26 14 -40 16 -20 19 -21 13 -4 -4 11 -11 35 -17 53 -9 32 -18 42 -18
20z"/>
<path d="M2043 253 c1 -29 7 -53 12 -53 6 0 -1 -10 -15 -22 l-25 -21 25 8 c39
11 40 17 20 80 l-19 60 2 -52z"/>
<path d="M1300 250 c0 -5 7 -10 16 -10 8 0 12 5 9 10 -3 6 -10 10 -16 10 -5 0
-9 -4 -9 -10z"/>
<path d="M1268 243 c7 -3 16 -2 19 1 4 3 -2 6 -13 5 -11 0 -14 -3 -6 -6z"/>
<path d="M2505 230 c-19 -7 -19 -7 1 -18 13 -7 29 -39 48 -99 15 -49 31 -95
36 -103 16 -26 22 -3 7 27 -8 15 -20 53 -26 83 -6 30 -18 61 -25 70 -8 8 -16
22 -17 31 -3 12 -10 14 -24 9z"/>
<path d="M1557 206 c-7 -18 1 -26 28 -26 12 0 25 -3 29 -7 10 -10 189 -73 209
-73 27 0 -13 19 -82 40 -85 25 -103 40 -48 40 32 0 112 19 105 25 -1 1 -26 -2
-55 -8 -38 -8 -62 -8 -90 1 -71 21 -91 23 -96 8z"/>
<path d="M160 200 c0 -5 5 -10 10 -10 6 0 10 5 10 10 0 6 -4 10 -10 10 -5 0
-10 -4 -10 -10z"/>
<path d="M331 190 c17 -35 174 -190 193 -190 10 0 13 6 10 15 -4 8 -9 13 -14
10 -9 -6 -90 63 -90 77 0 5 -9 21 -20 35 -11 14 -20 20 -20 13 0 -7 -16 4 -35
26 -26 28 -33 32 -24 14z m80 -67 c13 -16 12 -17 -3 -4 -17 13 -22 21 -14 21
2 0 10 -8 17 -17z"/>
<path d="M2616 185 c-3 -10 -2 -14 5 -10 6 4 8 -2 4 -18 -4 -14 -2 -28 4 -32
6 -3 8 -11 5 -17 -4 -6 -2 -8 4 -4 6 3 14 -3 17 -15 4 -11 9 -18 12 -16 6 7
-18 87 -33 110 -10 16 -12 16 -18 2z"/>
<path d="M2240 166 c0 -2 12 -12 28 -21 l27 -18 -19 21 c-17 20 -36 29 -36 18z"/>
<path d="M2330 166 c0 -2 8 -10 18 -17 15 -13 16 -12 3 4 -13 16 -21 21 -21
13z"/>
<path d="M2415 150 c-10 -11 -13 -20 -7 -20 7 0 12 5 12 10 0 6 11 10 23 10
16 0 28 -9 36 -27 10 -23 10 -26 0 -15 -7 6 -25 12 -41 12 -21 0 -26 -4 -21
-16 5 -14 3 -15 -15 -5 -26 14 -29 14 -35 -3 -3 -8 14 -32 41 -57 26 -24 39
-35 31 -24 -33 42 -33 48 1 29 18 -10 34 -25 37 -31 7 -19 33 -16 33 4 0 14 2
14 21 -3 20 -18 21 -18 17 11 -3 17 -10 42 -16 58 -7 15 -17 39 -22 53 -6 14
-14 23 -19 19 -5 -3 -12 -1 -16 5 -10 16 -41 11 -60 -10z m-20 -70 c3 -6 -1
-7 -9 -4 -18 7 -21 14 -7 14 6 0 13 -4 16 -10z"/>
<path d="M2690 123 c1 -27 7 -59 14 -72 8 -14 11 -32 8 -40 -5 -13 -4 -14 10
-1 13 12 13 18 2 35 -7 11 -14 44 -15 73 -3 65 -19 69 -19 5z"/>
<path d="M1933 153 c-28 -5 -29 -17 -5 -43 17 -19 18 -19 18 0 0 10 -3 18 -6
18 -22 -2 -20 5 5 17 31 14 28 16 -12 8z"/>
<path d="M116 139 c-4 -9 -6 -29 -4 -45 3 -29 2 -29 -55 -32 -56 -3 -57 -3
-57 -33 l0 -30 60 2 c68 3 83 19 18 19 -40 1 -42 2 -24 15 16 12 22 12 28 2 6
-9 10 -9 18 3 7 11 10 11 10 2 0 -7 5 -10 10 -7 6 4 7 11 4 17 -4 6 -2 13 4
17 6 4 7 22 2 46 -5 28 -9 35 -14 24z"/>
<path d="M1300 139 c0 -5 5 -7 10 -4 6 3 10 8 10 11 0 2 -4 4 -10 4 -5 0 -10
-5 -10 -11z"/>
<path d="M2042 123 c15 -15 30 -24 34 -20 7 7 -35 46 -51 47 -5 0 3 -12 17
-27z"/>
<path d="M1428 133 c6 -2 18 -2 25 0 6 3 1 5 -13 5 -14 0 -19 -2 -12 -5z"/>
<path d="M1475 130 c3 -5 16 -10 28 -11 l22 0 -22 -9 c-32 -13 -29 -22 3 -14
22 6 25 4 19 -7 -7 -11 -6 -12 7 -2 17 14 70 2 99 -23 9 -8 18 -11 22 -8 3 3
36 -4 73 -15 36 -12 68 -20 71 -17 5 4 -62 30 -157 61 -30 9 -74 26 -98 36
-46 21 -77 25 -67 9z"/>
<path d="M1977 120 c3 -11 6 -20 7 -20 1 0 16 -4 35 -10 l34 -9 -33 29 c-39
35 -50 38 -43 10z"/>
<path d="M1388 123 c7 -3 16 -2 19 1 4 3 -2 6 -13 5 -11 0 -14 -3 -6 -6z"/>
<path d="M1858 113 c-19 -5 -25 -23 -7 -23 5 0 9 -10 7 -22 -3 -20 0 -21 62
-19 81 3 93 11 17 11 -31 0 -57 3 -57 8 0 4 26 5 58 2 31 -3 56 -9 55 -15 -2
-15 -75 -34 -95 -24 -19 10 -98 -14 -80 -25 6 -4 23 1 36 10 23 15 27 15 41 0
11 -11 33 -16 68 -14 l52 1 -45 6 c-39 5 -42 7 -20 13 38 11 68 9 74 -4 4 -7
4 -3 2 9 -3 15 0 20 10 16 8 -3 14 -13 15 -22 0 -11 2 -12 6 -3 4 10 8 9 19
-5 12 -17 13 -17 8 3 -6 21 -41 44 -68 44 -8 0 -19 7 -26 15 -8 9 -22 12 -41
8 -15 -3 -41 -2 -56 2 -27 6 -27 7 -9 21 20 14 11 17 -26 7z"/>
<path d="M212 83 c15 -16 32 -41 38 -57 6 -16 13 -26 16 -23 13 12 -49 107
-69 107 -6 0 1 -12 15 -27z"/>
<path d="M2080 81 c0 -5 8 -11 18 -15 9 -3 24 -9 32 -12 8 -3 4 4 -10 15 -27
22 -40 26 -40 12z"/>
<path d="M355 40 c21 -22 44 -40 49 -40 6 0 -8 18 -29 40 -21 22 -44 40 -49
40 -6 0 8 -18 29 -40z"/>
<path d="M1068 44 c13 -25 42 -50 42 -37 0 5 -12 20 -26 34 -24 21 -26 22 -16
3z"/>
<path d="M1524 39 c-34 -22 -20 -25 26 -5 22 9 27 15 17 19 -8 3 -27 -3 -43
-14z"/>
<path d="M1598 53 c7 -3 16 -2 19 1 4 3 -2 6 -13 5 -11 0 -14 -3 -6 -6z"/>
<path d="M173 25 c15 -14 35 -25 44 -25 9 0 0 11 -21 25 -47 32 -59 32 -23 0z"/>
<path d="M325 26 c10 -14 19 -26 22 -26 7 0 -17 39 -28 46 -6 3 -3 -5 6 -20z"/>
<path d="M3417 20 c-5 -19 -1 -20 111 -18 112 2 114 2 42 8 -99 8 -63 14 75
11 61 -2 112 -7 113 -12 2 -5 25 -9 51 -9 38 0 47 3 48 19 1 17 -11 18 -217
20 -211 1 -218 1 -223 -19z"/>
<path d="M1313 23 c9 -2 23 -2 30 0 6 3 -1 5 -18 5 -16 0 -22 -2 -12 -5z"/>
<path d="M2766 9 c3 -5 24 -9 46 -9 51 0 47 5 -10 13 -24 3 -40 1 -36 -4z"/>
<path d="M563 3 c9 -2 25 -2 35 0 9 3 1 5 -18 5 -19 0 -27 -2 -17 -5z"/>
<path d="M2963 3 c9 -2 23 -2 30 0 6 3 -1 5 -18 5 -16 0 -22 -2 -12 -5z"/>
</g>
</svg>
